<svg width="683" height="526" xmlns="http://www.w3.org/2000/svg" xmlns:xlink="http://www.w3.org/1999/xlink" xml:space="preserve" overflow="hidden"><defs><clipPath id="clip0"><rect x="29" y="160" width="683" height="526"/></clipPath><clipPath id="clip1"><rect x="29" y="160" width="683" height="526"/></clipPath><clipPath id="clip2"><rect x="30" y="160" width="682" height="526"/></clipPath><clipPath id="clip3"><rect x="30" y="160" width="682" height="526"/></clipPath><clipPath id="clip4"><rect x="30" y="71" width="682" height="615"/></clipPath><clipPath id="clip5"><rect x="142" y="180" width="537" height="428"/></clipPath><clipPath id="clip6"><rect x="142" y="180" width="537" height="428"/></clipPath><clipPath id="clip7"><rect x="142" y="180" width="537" height="428"/></clipPath><clipPath id="clip8"><rect x="142" y="180" width="537" height="428"/></clipPath></defs><g clip-path="url(#clip0)" transform="translate(-29 -160)"><g clip-path="url(#clip1)"><g clip-path="url(#clip2)"><g clip-path="url(#clip3)"><g clip-path="url(#clip4)"><path d="M0.95243 1.9049 681.003 1.9049 681.003 611.475 0.952442 611.475Z" stroke="#000000" stroke-width="2.24411" stroke-linecap="butt" stroke-linejoin="miter" stroke-miterlimit="4" stroke-opacity="1" fill="#000000" fill-rule="nonzero" fill-opacity="1" transform="matrix(1.00083 0 0 1 30 72.2862)"/><g clip-path="url(#clip5)"><path d="M112.16-60542 363.466-60542 363.466 381.539 112.16 381.539Z" stroke="#FFFFFF" stroke-width="2.80426" stroke-linecap="butt" stroke-linejoin="miter" stroke-miterlimit="10" stroke-opacity="0.1" fill="#FFF7F7" fill-rule="nonzero" fill-opacity="0.1" transform="matrix(1.00083 0 0 -1 30 685.579)"/></g><g clip-path="url(#clip6)"><path d="M363.466-60542 614.772-60542 614.772 457.916 363.466 457.916Z" stroke="#FFFFFF" stroke-width="2.80426" stroke-linecap="butt" stroke-linejoin="miter" stroke-miterlimit="10" stroke-opacity="0.1" fill="#FFFFFF" fill-rule="nonzero" fill-opacity="0.1" transform="matrix(1.00083 0 0 -1 30 685.579)"/></g><path d="M112.16 78.4237 112.16 68.6087" stroke="#FCFCFC" stroke-width="2.24341" stroke-linecap="butt" stroke-linejoin="round" stroke-miterlimit="10" stroke-opacity="1" fill="none" fill-rule="nonzero" transform="matrix(1.00083 0 0 -1 30 685.579)"/><path d="M7.32865-16.9891 2.79365-14.7216 2.79365-14.3601C3.0894-14.4915 3.38516-14.5901 3.48376-14.623 3.91096-14.8202 4.33819-14.9188 4.60109-14.9188 5.12689-14.9188 5.35692-14.5244 5.35692-13.7357L5.35692-2.33246C5.35692-1.5109 5.15975-0.919374 4.76539-0.689338 4.37106-0.492162 4.00956-0.393575 2.95796-0.360712L2.95796 0.000773816 9.89194 0.000773816 9.89194-0.360712C7.92018-0.393575 7.52585-0.656474 7.52585-1.87238L7.52585-16.9562ZM18.9455-16.9891C17.5653-16.9891 16.5137-16.5619 15.5936-15.6746 14.1147-14.2944 13.1617-11.4025 13.1617-8.44486 13.1617-5.7173 14.0162-2.75967 15.1992-1.34659 16.1194-0.262126 17.401 0.36226 18.8469 0.36226 20.1286 0.36226 21.213-0.0649511 22.1332-0.952237 23.5791-2.33246 24.5321-5.2572 24.5321-8.28056 24.5321-13.4399 22.2646-16.9891 18.9455-16.9891ZM18.8798-16.3318C20.983-16.3318 22.1332-13.5057 22.1332-8.24769 22.1332-2.98971 21.0159-0.294988 18.847-0.294988 16.678-0.294988 15.5936-2.98971 15.5936-8.21483 15.5936-13.5385 16.7109-16.3318 18.8798-16.3318Z" fill="#FFFFFF" fill-rule="nonzero" fill-opacity="1" transform="matrix(1.00083 0 0 1 117.174 643.904)"/><path d="M38.0221-13.6289C38.3508-13.6289 38.7122-13.6289 38.7122-14.0233 38.7122-14.4176 38.3508-14.4176 38.0221-14.4176L27.4405-14.4176C27.1118-14.4176 26.7503-14.4176 26.7503-14.0233 26.7503-13.6289 27.1118-13.6289 27.4405-13.6289Z" fill="#FFFFFF" fill-rule="nonzero" fill-opacity="1" transform="matrix(1.00083 0 0 1 117.174 643.904)"/><path d="M43.8881-20.53 47.7002-20.53C48.0288-20.53 48.0945-20.5629 48.1604-20.6943L48.9161-22.436 48.719-22.5675C48.4231-22.1731 48.226-22.0745 47.8317-22.0745L43.7565-22.0745 41.6205-17.441C41.5877-17.4081 41.5877-17.3752 41.5877-17.3424 41.5877-17.2438 41.6534-17.1781 41.8177-17.1781 42.4422-17.1781 43.2307-17.0466 44.0196-16.7837 46.2871-16.0607 47.3059-14.8448 47.3059-12.9059 47.3059-11.0328 46.1228-9.58684 44.611-9.58684 44.2167-9.58684 43.8881-9.71827 43.2966-10.1455 42.6721-10.6056 42.2122-10.8027 41.8177-10.8027 41.2263-10.8027 40.9632-10.5398 40.9632-10.0798 40.9632-9.32394 41.8836-8.86387 43.3623-8.86387 45.0056-8.86387 46.3855-9.38967 47.3715-10.3755 48.2916-11.2628 48.6862-12.3801 48.6862-13.859 48.6862-15.272 48.3244-16.1593 47.3387-17.1452 46.4842-17.9996 45.367-18.4597 43.0664-18.854Z" fill="#FFFFFF" fill-rule="nonzero" fill-opacity="1" transform="matrix(1.00083 0 0 1 117.174 643.904)"/><path d="M197.211 78.4237 197.211 68.6087" stroke="#FCFCFC" stroke-width="2.24341" stroke-linecap="butt" stroke-linejoin="round" stroke-miterlimit="10" stroke-opacity="1" fill="none" fill-rule="nonzero" transform="matrix(1.00083 0 0 -1 30 685.579)"/><path d="M7.32579-16.9891 2.79077-14.7216 2.79077-14.3601C3.08654-14.4915 3.3823-14.5901 3.48087-14.623 3.9081-14.8202 4.3353-14.9188 4.5982-14.9188 5.124-14.9188 5.35403-14.5244 5.35403-13.7357L5.35403-2.33246C5.35403-1.5109 5.15687-0.919374 4.7625-0.689338 4.36817-0.492162 4.00667-0.393575 2.95507-0.360712L2.95507 0.000773816 9.88905 0.000773816 9.88905-0.360712C7.91729-0.393575 7.52296-0.656474 7.52296-1.87238L7.52296-16.9562ZM18.9509-16.9891C17.5707-16.9891 16.5191-16.5619 15.5989-15.6746 14.1201-14.2944 13.1671-11.4025 13.1671-8.44486 13.1671-5.7173 14.0215-2.75967 15.2046-1.34659 16.1247-0.262126 17.4063 0.36226 18.8523 0.36226 20.1339 0.36226 21.2184-0.0649511 22.1385-0.952237 23.5845-2.33246 24.5375-5.2572 24.5375-8.28056 24.5375-13.4399 22.27-16.9891 18.9509-16.9891ZM18.8851-16.3318C20.9883-16.3318 22.1385-13.5057 22.1385-8.24769 22.1385-2.98971 21.0212-0.294988 18.8523-0.294988 16.6834-0.294988 15.5989-2.98971 15.5989-8.21483 15.5989-13.5385 16.7162-16.3318 18.8851-16.3318Z" fill="#FFFFFF" fill-rule="nonzero" fill-opacity="1" transform="matrix(1.00083 0 0 1 202.295 643.904)"/><path d="M38.0274-13.6289C38.3561-13.6289 38.7176-13.6289 38.7176-14.0233 38.7176-14.4176 38.3561-14.4176 38.0274-14.4176L27.4458-14.4176C27.1172-14.4176 26.7557-14.4176 26.7557-14.0233 26.7557-13.6289 27.1172-13.6289 27.4458-13.6289Z" fill="#FFFFFF" fill-rule="nonzero" fill-opacity="1" transform="matrix(1.00083 0 0 1 202.295 643.904)"/><path d="M49.5703-13.6289 47.5659-13.6289 47.5659-22.3374 46.7114-22.3374 40.5661-13.6289 40.5661-12.3801 46.0541-12.3801 46.0541-9.12677 47.5659-9.12677 47.5659-12.3801 49.5703-12.3801ZM46.0541-13.6289 41.3547-13.6289 46.0541-20.3657Z" fill="#FFFFFF" fill-rule="nonzero" fill-opacity="1" transform="matrix(1.00083 0 0 1 202.295 643.904)"/><path d="M282.263 78.4237 282.263 68.6087" stroke="#FCFCFC" stroke-width="2.24341" stroke-linecap="butt" stroke-linejoin="round" stroke-miterlimit="10" stroke-opacity="1" fill="none" fill-rule="nonzero" transform="matrix(1.00083 0 0 -1 30 685.579)"/><path d="M7.33112-16.9891 2.7961-14.7216 2.7961-14.3601C3.09186-14.4915 3.38763-14.5901 3.4862-14.623 3.91343-14.8202 4.34063-14.9188 4.60353-14.9188 5.12933-14.9188 5.35936-14.5244 5.35936-13.7357L5.35936-2.33246C5.35936-1.5109 5.16219-0.919374 4.76786-0.689338 4.3735-0.492162 4.012-0.393575 2.9604-0.360712L2.9604 0.000773816 9.89438 0.000773816 9.89438-0.360712C7.92265-0.393575 7.52829-0.656474 7.52829-1.87238L7.52829-16.9562ZM18.948-16.9891C17.5678-16.9891 16.5162-16.5619 15.596-15.6746 14.1172-14.2944 13.1642-11.4025 13.1642-8.44486 13.1642-5.7173 14.0186-2.75967 15.2017-1.34659 16.1218-0.262126 17.4035 0.36226 18.8494 0.36226 20.131 0.36226 21.2155-0.0649511 22.1356-0.952237 23.5816-2.33246 24.5346-5.2572 24.5346-8.28056 24.5346-13.4399 22.2671-16.9891 18.948-16.9891ZM18.8823-16.3318C20.9855-16.3318 22.1356-13.5057 22.1356-8.24769 22.1356-2.98971 21.0183-0.294988 18.8494-0.294988 16.6805-0.294988 15.596-2.98971 15.596-8.21483 15.596-13.5385 16.7133-16.3318 18.8823-16.3318Z" fill="#FFFFFF" fill-rule="nonzero" fill-opacity="1" transform="matrix(1.00083 0 0 1 287.417 643.904)"/><path d="M38.0246-13.6289C38.3533-13.6289 38.7148-13.6289 38.7148-14.0233 38.7148-14.4176 38.3533-14.4176 38.0246-14.4176L27.4429-14.4176C27.1143-14.4176 26.7528-14.4176 26.7528-14.0233 26.7528-13.6289 27.1143-13.6289 27.4429-13.6289Z" fill="#FFFFFF" fill-rule="nonzero" fill-opacity="1" transform="matrix(1.00083 0 0 1 287.417 643.904)"/><path d="M43.332-15.5678C44.482-15.5678 44.9422-15.5349 45.4024-15.3706 46.618-14.9434 47.374-13.8261 47.374-12.4787 47.374-10.8356 46.2565-9.55397 44.8107-9.55397 44.2849-9.55397 43.8906-9.68544 43.1677-10.1784 42.576-10.507 42.2473-10.6384 41.9189-10.6384 41.4915-10.6384 41.1957-10.3755 41.1957-9.98117 41.1957-9.29107 42.0173-8.86387 43.3976-8.86387 44.9094-8.86387 46.454-9.3568 47.374-10.1784 48.2941-10.9671 48.7871-12.0844 48.7871-13.3989 48.7871-14.4176 48.4913-15.3378 47.8998-15.9293 47.5056-16.3565 47.1438-16.5865 46.2896-16.9809 47.6368-17.901 48.1298-18.624 48.1298-19.6756 48.1298-21.253 46.8811-22.3374 45.0737-22.3374 44.0877-22.3374 43.2333-22.0088 42.5431-21.3844 41.9517-20.8586 41.6559-20.3657 41.2288-19.1827L41.5244-19.0841C42.3132-20.53 43.2005-21.1873 44.4164-21.1873 45.6979-21.1873 46.5852-20.3 46.5852-19.0841 46.5852-18.3611 46.2896-17.671 45.7966-17.1781 45.2049-16.5865 44.6463-16.2908 43.332-15.8307Z" fill="#FFFFFF" fill-rule="nonzero" fill-opacity="1" transform="matrix(1.00083 0 0 1 287.417 643.904)"/><path d="M367.313 78.4237 367.313 68.6087" stroke="#FCFCFC" stroke-width="2.24341" stroke-linecap="butt" stroke-linejoin="round" stroke-miterlimit="10" stroke-opacity="1" fill="none" fill-rule="nonzero" transform="matrix(1.00083 0 0 -1 30 685.579)"/><path d="M7.32823-16.9891 2.79322-14.7216 2.79322-14.3601C3.08898-14.4915 3.38474-14.5901 3.48334-14.623 3.91054-14.8202 4.33777-14.9188 4.60067-14.9188 5.12647-14.9188 5.3565-14.5244 5.3565-13.7357L5.3565-2.33246C5.3565-1.5109 5.15931-0.919374 4.76497-0.689338 4.37061-0.492162 4.00914-0.393575 2.95754-0.360712L2.95754 0.000773816 9.89149 0.000773816 9.89149-0.360712C7.91976-0.393575 7.5254-0.656474 7.5254-1.87238L7.5254-16.9562ZM18.9451-16.9891C17.5649-16.9891 16.5133-16.5619 15.5931-15.6746 14.1143-14.2944 13.1613-11.4025 13.1613-8.44486 13.1613-5.7173 14.0157-2.75967 15.1988-1.34659 16.1189-0.262126 17.4006 0.36226 18.8465 0.36226 20.1281 0.36226 21.2126-0.0649511 22.1328-0.952237 23.5787-2.33246 24.5317-5.2572 24.5317-8.28056 24.5317-13.4399 22.2642-16.9891 18.9451-16.9891ZM18.8794-16.3318C20.9826-16.3318 22.1328-13.5057 22.1328-8.24769 22.1328-2.98971 21.0154-0.294988 18.8465-0.294988 16.6776-0.294988 15.5931-2.98971 15.5931-8.21483 15.5931-13.5385 16.7105-16.3318 18.8794-16.3318Z" fill="#FFFFFF" fill-rule="nonzero" fill-opacity="1" transform="matrix(1.00083 0 0 1 372.539 643.904)"/><path d="M38.03-13.6289C38.3586-13.6289 38.7201-13.6289 38.7201-14.0233 38.7201-14.4176 38.3586-14.4176 38.03-14.4176L27.4483-14.4176C27.1196-14.4176 26.7581-14.4176 26.7581-14.0233 26.7581-13.6289 27.1196-13.6289 27.4483-13.6289Z" fill="#FFFFFF" fill-rule="nonzero" fill-opacity="1" transform="matrix(1.00083 0 0 1 372.539 643.904)"/><path d="M49.6385-11.8215 49.3757-11.8872C48.6528-10.8027 48.3897-10.6056 47.5025-10.6056L42.8362-10.6056 46.1222-14.0561C47.8639-15.8636 48.62-17.3424 48.62-18.8869 48.62-20.8258 47.0426-22.3374 45.005-22.3374 43.9206-22.3374 42.9346-21.9102 42.2117-21.1215 41.5544-20.4643 41.2916-19.8399 40.9301-18.4597L41.3572-18.3611C42.1461-20.2671 42.8362-20.8915 44.1834-20.8915 45.8267-20.8915 46.9439-19.7742 46.9439-18.1311 46.9439-16.6194 46.0566-14.812 44.4136-13.0703L40.9301-9.3568 40.9301-9.12677 48.5541-9.12677Z" fill="#FFFFFF" fill-rule="nonzero" fill-opacity="1" transform="matrix(1.00083 0 0 1 372.539 643.904)"/><path d="M452.364 78.4237 452.364 68.6087" stroke="#FCFCFC" stroke-width="2.24341" stroke-linecap="butt" stroke-linejoin="round" stroke-miterlimit="10" stroke-opacity="1" fill="none" fill-rule="nonzero" transform="matrix(1.00083 0 0 -1 30 685.579)"/><path d="M7.32534-16.9891 2.79034-14.7216 2.79034-14.3601C3.08612-14.4915 3.38185-14.5901 3.48045-14.623 3.90765-14.8202 4.33488-14.9188 4.59778-14.9188 5.12358-14.9188 5.35361-14.5244 5.35361-13.7357L5.35361-2.33246C5.35361-1.5109 5.15645-0.919374 4.76208-0.689338 4.36775-0.492162 4.00625-0.393575 2.95465-0.360712L2.95465 0.000773816 9.88863 0.000773816 9.88863-0.360712C7.91687-0.393575 7.52254-0.656474 7.52254-1.87238L7.52254-16.9562ZM18.9504-16.9891C17.5702-16.9891 16.5186-16.5619 15.5985-15.6746 14.1197-14.2944 13.1666-11.4025 13.1666-8.44486 13.1666-5.7173 14.0211-2.75967 15.2041-1.34659 16.1243-0.262126 17.4059 0.36226 18.8519 0.36226 20.1335 0.36226 21.218-0.0649511 22.1381-0.952237 23.584-2.33246 24.537-5.2572 24.537-8.28056 24.537-13.4399 22.2696-16.9891 18.9504-16.9891ZM18.8847-16.3318C20.9879-16.3318 22.1381-13.5057 22.1381-8.24769 22.1381-2.98971 21.0208-0.294988 18.8519-0.294988 16.6829-0.294988 15.5985-2.98971 15.5985-8.21483 15.5985-13.5385 16.7158-16.3318 18.8847-16.3318Z" fill="#FFFFFF" fill-rule="nonzero" fill-opacity="1" transform="matrix(1.00083 0 0 1 457.658 643.904)"/><path d="M38.0272-13.6289C38.3558-13.6289 38.7173-13.6289 38.7173-14.0233 38.7173-14.4176 38.3558-14.4176 38.0272-14.4176L27.4454-14.4176C27.1167-14.4176 26.7553-14.4176 26.7553-14.0233 26.7553-13.6289 27.1167-13.6289 27.4454-13.6289Z" fill="#FFFFFF" fill-rule="nonzero" fill-opacity="1" transform="matrix(1.00083 0 0 1 457.658 643.904)"/><path d="M46.021-22.3374 42.5044-20.5629 42.5044-20.3C42.7347-20.3986 42.9646-20.4643 43.0302-20.4971 43.392-20.6286 43.7204-20.7272 43.9178-20.7272 44.3121-20.7272 44.5092-20.4314 44.5092-19.807L44.5092-10.9342C44.5092-10.3098 44.3449-9.84974 44.0162-9.68541 43.7535-9.48824 43.4576-9.45537 42.636-9.42251L42.636-9.12677 48.0255-9.12677 48.0255-9.42251C46.4809-9.45537 46.185-9.6197 46.185-10.5727L46.185-22.3046Z" fill="#FFFFFF" fill-rule="nonzero" fill-opacity="1" transform="matrix(1.00083 0 0 1 457.658 643.904)"/><path d="M537.414 78.4237 537.414 68.6087" stroke="#FCFCFC" stroke-width="2.24341" stroke-linecap="butt" stroke-linejoin="round" stroke-miterlimit="10" stroke-opacity="1" fill="none" fill-rule="nonzero" transform="matrix(1.00083 0 0 -1 30 685.579)"/><path d="M5.68121-13.2099 2.16493-11.4354 2.16493-11.1725C2.39497-11.271 2.625-11.3368 2.69073-11.3696 3.05221-11.5011 3.38084-11.5997 3.57801-11.5997 3.97237-11.5997 4.16954-11.3039 4.16954-10.6795L4.16954-1.80666C4.16954-1.18227 4.00521-0.722198 3.67661-0.557885 3.41371-0.360712 3.11794-0.327849 2.29638-0.294986L2.29638 0.000773816 7.68583 0.000773816 7.68583-0.294988C6.14127-0.327852 5.84554-0.492162 5.84554-1.44517L5.84554-13.177ZM17.5363-13.2099C16.4519-13.2099 15.6303-12.8813 14.9073-12.1912 13.79-11.1067 13.0342-8.87209 13.0342-6.5717 13.0342-4.43567 13.6914-2.13528 14.6116-1.05082 15.3345-0.196401 16.3204 0.263673 17.4706 0.263673 18.4565 0.263673 19.3109-0.0649511 20.001-0.755061 21.1512-1.80666 21.8742-4.07417 21.8742-6.44026 21.8742-10.4495 20.0996-13.2099 17.5363-13.2099ZM17.4706-12.717C19.1137-12.717 20.001-10.5152 20.001-6.4074 20.001-2.33246 19.1466-0.229263 17.4706-0.229263 15.7946-0.229263 14.9073-2.33246 14.9073-6.4074 14.9073-10.5481 15.7946-12.717 17.4706-12.717ZM30.1063-22.3374C29.0218-22.3374 28.2002-22.0088 27.4772-21.3187 26.3599-20.2342 25.604-17.9996 25.604-15.6993 25.604-13.5632 26.2613-11.2628 27.1814-10.1784 27.9044-9.32394 28.8903-8.86387 30.0404-8.86387 31.0263-8.86387 31.8808-9.19248 32.5709-9.8826 33.7209-10.9342 34.4442-13.2017 34.4442-15.5678 34.4442-19.577 32.6693-22.3374 30.1063-22.3374ZM30.0404-21.8445C31.6836-21.8445 32.5709-19.6427 32.5709-15.5349 32.5709-11.46 31.7165-9.3568 30.0404-9.3568 28.3645-9.3568 27.4772-11.46 27.4772-15.5349 27.4772-19.6756 28.3645-21.8445 30.0404-21.8445Z" fill="#FFFFFF" fill-rule="nonzero" fill-opacity="1" transform="matrix(1.00083 0 0 1 550.385 643.904)"/><path d="M622.464 78.4237 622.464 68.6087" stroke="#FCFCFC" stroke-width="2.24341" stroke-linecap="butt" stroke-linejoin="round" stroke-miterlimit="10" stroke-opacity="1" fill="none" fill-rule="nonzero" transform="matrix(1.00083 0 0 -1 30 685.579)"/><path d="M5.68653-13.2099 2.17027-11.4354 2.17027-11.1725C2.4003-11.271 2.63034-11.3368 2.69607-11.3696 3.05754-11.5011 3.38617-11.5997 3.58334-11.5997 3.9777-11.5997 4.17487-11.3039 4.17487-10.6795L4.17487-1.80666C4.17487-1.18227 4.01057-0.722198 3.68194-0.557885 3.41904-0.360712 3.12327-0.327849 2.30172-0.294986L2.30172 0.000773816 7.69116 0.000773816 7.69116-0.294988C6.14663-0.327852 5.85086-0.492162 5.85086-1.44517L5.85086-13.177ZM17.5334-13.2099C16.449-13.2099 15.6274-12.8813 14.9044-12.1912 13.7871-11.1067 13.0313-8.87209 13.0313-6.5717 13.0313-4.43567 13.6885-2.13528 14.6087-1.05082 15.3317-0.196401 16.3175 0.263673 17.4677 0.263673 18.4536 0.263673 19.308-0.0649511 19.9981-0.755061 21.1483-1.80666 21.8713-4.07417 21.8713-6.44026 21.8713-10.4495 20.0967-13.2099 17.5334-13.2099ZM17.4677-12.717C19.1108-12.717 19.9981-10.5152 19.9981-6.4074 19.9981-2.33246 19.1437-0.229263 17.4677-0.229263 15.7917-0.229263 14.9044-2.33246 14.9044-6.4074 14.9044-10.5481 15.7917-12.717 17.4677-12.717ZM30.8264-22.3374 27.31-20.5629 27.31-20.3C27.54-20.3986 27.7701-20.4643 27.8358-20.4971 28.1974-20.6286 28.5261-20.7272 28.7232-20.7272 29.1175-20.7272 29.3146-20.4314 29.3146-19.807L29.3146-10.9342C29.3146-10.3098 29.1503-9.84974 28.8216-9.68541 28.5589-9.48824 28.263-9.45537 27.4415-9.42251L27.4415-9.12677 32.8309-9.12677 32.8309-9.42251C31.2863-9.45537 30.9907-9.6197 30.9907-10.5727L30.9907-22.3046Z" fill="#FFFFFF" fill-rule="nonzero" fill-opacity="1" transform="matrix(1.00083 0 0 1 635.507 643.904)"/><path d="M137.763 78.4237 137.763 72.8151" stroke="#FCFCFC" stroke-width="1.68256" stroke-linecap="butt" stroke-linejoin="round" stroke-miterlimit="10" stroke-opacity="1" fill="none" fill-rule="nonzero" transform="matrix(1.00083 0 0 -1 30 685.579)"/><path d="M152.74 78.4237 152.74 72.8151" stroke="#FCFCFC" stroke-width="1.68256" stroke-linecap="butt" stroke-linejoin="round" stroke-miterlimit="10" stroke-opacity="1" fill="none" fill-rule="nonzero" transform="matrix(1.00083 0 0 -1 30 685.579)"/><path d="M163.366 78.4237 163.366 72.8151" stroke="#FCFCFC" stroke-width="1.68256" stroke-linecap="butt" stroke-linejoin="round" stroke-miterlimit="10" stroke-opacity="1" fill="none" fill-rule="nonzero" transform="matrix(1.00083 0 0 -1 30 685.579)"/><path d="M171.608 78.4237 171.608 72.8151" stroke="#FCFCFC" stroke-width="1.68256" stroke-linecap="butt" stroke-linejoin="round" stroke-miterlimit="10" stroke-opacity="1" fill="none" fill-rule="nonzero" transform="matrix(1.00083 0 0 -1 30 685.579)"/><path d="M178.343 78.4237 178.343 72.8151" stroke="#FCFCFC" stroke-width="1.68256" stroke-linecap="butt" stroke-linejoin="round" stroke-miterlimit="10" stroke-opacity="1" fill="none" fill-rule="nonzero" transform="matrix(1.00083 0 0 -1 30 685.579)"/><path d="M184.037 78.4237 184.037 72.8151" stroke="#FCFCFC" stroke-width="1.68256" stroke-linecap="butt" stroke-linejoin="round" stroke-miterlimit="10" stroke-opacity="1" fill="none" fill-rule="nonzero" transform="matrix(1.00083 0 0 -1 30 685.579)"/><path d="M188.969 78.4237 188.969 72.8151" stroke="#FCFCFC" stroke-width="1.68256" stroke-linecap="butt" stroke-linejoin="round" stroke-miterlimit="10" stroke-opacity="1" fill="none" fill-rule="nonzero" transform="matrix(1.00083 0 0 -1 30 685.579)"/><path d="M193.319 78.4237 193.319 72.8151" stroke="#FCFCFC" stroke-width="1.68256" stroke-linecap="butt" stroke-linejoin="round" stroke-miterlimit="10" stroke-opacity="1" fill="none" fill-rule="nonzero" transform="matrix(1.00083 0 0 -1 30 685.579)"/><path d="M222.814 78.4237 222.814 72.8151" stroke="#FCFCFC" stroke-width="1.68256" stroke-linecap="butt" stroke-linejoin="round" stroke-miterlimit="10" stroke-opacity="1" fill="none" fill-rule="nonzero" transform="matrix(1.00083 0 0 -1 30 685.579)"/><path d="M237.791 78.4237 237.791 72.8151" stroke="#FCFCFC" stroke-width="1.68256" stroke-linecap="butt" stroke-linejoin="round" stroke-miterlimit="10" stroke-opacity="1" fill="none" fill-rule="nonzero" transform="matrix(1.00083 0 0 -1 30 685.579)"/><path d="M248.417 78.4237 248.417 72.8151" stroke="#FCFCFC" stroke-width="1.68256" stroke-linecap="butt" stroke-linejoin="round" stroke-miterlimit="10" stroke-opacity="1" fill="none" fill-rule="nonzero" transform="matrix(1.00083 0 0 -1 30 685.579)"/><path d="M256.659 78.4237 256.659 72.8151" stroke="#FCFCFC" stroke-width="1.68256" stroke-linecap="butt" stroke-linejoin="round" stroke-miterlimit="10" stroke-opacity="1" fill="none" fill-rule="nonzero" transform="matrix(1.00083 0 0 -1 30 685.579)"/><path d="M263.393 78.4237 263.393 72.8151" stroke="#FCFCFC" stroke-width="1.68256" stroke-linecap="butt" stroke-linejoin="round" stroke-miterlimit="10" stroke-opacity="1" fill="none" fill-rule="nonzero" transform="matrix(1.00083 0 0 -1 30 685.579)"/><path d="M269.087 78.4237 269.087 72.8151" stroke="#FCFCFC" stroke-width="1.68256" stroke-linecap="butt" stroke-linejoin="round" stroke-miterlimit="10" stroke-opacity="1" fill="none" fill-rule="nonzero" transform="matrix(1.00083 0 0 -1 30 685.579)"/><path d="M274.02 78.4237 274.02 72.8151" stroke="#FCFCFC" stroke-width="1.68256" stroke-linecap="butt" stroke-linejoin="round" stroke-miterlimit="10" stroke-opacity="1" fill="none" fill-rule="nonzero" transform="matrix(1.00083 0 0 -1 30 685.579)"/><path d="M278.37 78.4237 278.37 72.8151" stroke="#FCFCFC" stroke-width="1.68256" stroke-linecap="butt" stroke-linejoin="round" stroke-miterlimit="10" stroke-opacity="1" fill="none" fill-rule="nonzero" transform="matrix(1.00083 0 0 -1 30 685.579)"/><path d="M307.866 78.4237 307.866 72.8151" stroke="#FCFCFC" stroke-width="1.68256" stroke-linecap="butt" stroke-linejoin="round" stroke-miterlimit="10" stroke-opacity="1" fill="none" fill-rule="nonzero" transform="matrix(1.00083 0 0 -1 30 685.579)"/><path d="M322.84 78.4237 322.84 72.8151" stroke="#FCFCFC" stroke-width="1.68256" stroke-linecap="butt" stroke-linejoin="round" stroke-miterlimit="10" stroke-opacity="1" fill="none" fill-rule="nonzero" transform="matrix(1.00083 0 0 -1 30 685.579)"/><path d="M333.469 78.4237 333.469 72.8151" stroke="#FCFCFC" stroke-width="1.68256" stroke-linecap="butt" stroke-linejoin="round" stroke-miterlimit="10" stroke-opacity="1" fill="none" fill-rule="nonzero" transform="matrix(1.00083 0 0 -1 30 685.579)"/><path d="M341.71 78.4237 341.71 72.8151" stroke="#FCFCFC" stroke-width="1.68256" stroke-linecap="butt" stroke-linejoin="round" stroke-miterlimit="10" stroke-opacity="1" fill="none" fill-rule="nonzero" transform="matrix(1.00083 0 0 -1 30 685.579)"/><path d="M348.443 78.4237 348.443 72.8151" stroke="#FCFCFC" stroke-width="1.68256" stroke-linecap="butt" stroke-linejoin="round" stroke-miterlimit="10" stroke-opacity="1" fill="none" fill-rule="nonzero" transform="matrix(1.00083 0 0 -1 30 685.579)"/><path d="M354.139 78.4237 354.139 72.8151" stroke="#FCFCFC" stroke-width="1.68256" stroke-linecap="butt" stroke-linejoin="round" stroke-miterlimit="10" stroke-opacity="1" fill="none" fill-rule="nonzero" transform="matrix(1.00083 0 0 -1 30 685.579)"/><path d="M359.071 78.4237 359.071 72.8151" stroke="#FCFCFC" stroke-width="1.68256" stroke-linecap="butt" stroke-linejoin="round" stroke-miterlimit="10" stroke-opacity="1" fill="none" fill-rule="nonzero" transform="matrix(1.00083 0 0 -1 30 685.579)"/><path d="M363.421 78.4237 363.421 72.8151" stroke="#FCFCFC" stroke-width="1.68256" stroke-linecap="butt" stroke-linejoin="round" stroke-miterlimit="10" stroke-opacity="1" fill="none" fill-rule="nonzero" transform="matrix(1.00083 0 0 -1 30 685.579)"/><path d="M392.916 78.4237 392.916 72.8151" stroke="#FCFCFC" stroke-width="1.68256" stroke-linecap="butt" stroke-linejoin="round" stroke-miterlimit="10" stroke-opacity="1" fill="none" fill-rule="nonzero" transform="matrix(1.00083 0 0 -1 30 685.579)"/><path d="M407.894 78.4237 407.894 72.8151" stroke="#FCFCFC" stroke-width="1.68256" stroke-linecap="butt" stroke-linejoin="round" stroke-miterlimit="10" stroke-opacity="1" fill="none" fill-rule="nonzero" transform="matrix(1.00083 0 0 -1 30 685.579)"/><path d="M418.519 78.4237 418.519 72.8151" stroke="#FCFCFC" stroke-width="1.68256" stroke-linecap="butt" stroke-linejoin="round" stroke-miterlimit="10" stroke-opacity="1" fill="none" fill-rule="nonzero" transform="matrix(1.00083 0 0 -1 30 685.579)"/><path d="M426.761 78.4237 426.761 72.8151" stroke="#FCFCFC" stroke-width="1.68256" stroke-linecap="butt" stroke-linejoin="round" stroke-miterlimit="10" stroke-opacity="1" fill="none" fill-rule="nonzero" transform="matrix(1.00083 0 0 -1 30 685.579)"/><path d="M433.497 78.4237 433.497 72.8151" stroke="#FCFCFC" stroke-width="1.68256" stroke-linecap="butt" stroke-linejoin="round" stroke-miterlimit="10" stroke-opacity="1" fill="none" fill-rule="nonzero" transform="matrix(1.00083 0 0 -1 30 685.579)"/><path d="M439.189 78.4237 439.189 72.8151" stroke="#FCFCFC" stroke-width="1.68256" stroke-linecap="butt" stroke-linejoin="round" stroke-miterlimit="10" stroke-opacity="1" fill="none" fill-rule="nonzero" transform="matrix(1.00083 0 0 -1 30 685.579)"/><path d="M444.122 78.4237 444.122 72.8151" stroke="#FCFCFC" stroke-width="1.68256" stroke-linecap="butt" stroke-linejoin="round" stroke-miterlimit="10" stroke-opacity="1" fill="none" fill-rule="nonzero" transform="matrix(1.00083 0 0 -1 30 685.579)"/><path d="M448.471 78.4237 448.471 72.8151" stroke="#FCFCFC" stroke-width="1.68256" stroke-linecap="butt" stroke-linejoin="round" stroke-miterlimit="10" stroke-opacity="1" fill="none" fill-rule="nonzero" transform="matrix(1.00083 0 0 -1 30 685.579)"/><path d="M477.966 78.4237 477.966 72.8151" stroke="#FCFCFC" stroke-width="1.68256" stroke-linecap="butt" stroke-linejoin="round" stroke-miterlimit="10" stroke-opacity="1" fill="none" fill-rule="nonzero" transform="matrix(1.00083 0 0 -1 30 685.579)"/><path d="M492.944 78.4237 492.944 72.8151" stroke="#FCFCFC" stroke-width="1.68256" stroke-linecap="butt" stroke-linejoin="round" stroke-miterlimit="10" stroke-opacity="1" fill="none" fill-rule="nonzero" transform="matrix(1.00083 0 0 -1 30 685.579)"/><path d="M503.569 78.4237 503.569 72.8151" stroke="#FCFCFC" stroke-width="1.68256" stroke-linecap="butt" stroke-linejoin="round" stroke-miterlimit="10" stroke-opacity="1" fill="none" fill-rule="nonzero" transform="matrix(1.00083 0 0 -1 30 685.579)"/><path d="M511.811 78.4237 511.811 72.8151" stroke="#FCFCFC" stroke-width="1.68256" stroke-linecap="butt" stroke-linejoin="round" stroke-miterlimit="10" stroke-opacity="1" fill="none" fill-rule="nonzero" transform="matrix(1.00083 0 0 -1 30 685.579)"/><path d="M518.547 78.4237 518.547 72.8151" stroke="#FCFCFC" stroke-width="1.68256" stroke-linecap="butt" stroke-linejoin="round" stroke-miterlimit="10" stroke-opacity="1" fill="none" fill-rule="nonzero" transform="matrix(1.00083 0 0 -1 30 685.579)"/><path d="M524.24 78.4237 524.24 72.8151" stroke="#FCFCFC" stroke-width="1.68256" stroke-linecap="butt" stroke-linejoin="round" stroke-miterlimit="10" stroke-opacity="1" fill="none" fill-rule="nonzero" transform="matrix(1.00083 0 0 -1 30 685.579)"/><path d="M529.172 78.4237 529.172 72.8151" stroke="#FCFCFC" stroke-width="1.68256" stroke-linecap="butt" stroke-linejoin="round" stroke-miterlimit="10" stroke-opacity="1" fill="none" fill-rule="nonzero" transform="matrix(1.00083 0 0 -1 30 685.579)"/><path d="M533.522 78.4237 533.522 72.8151" stroke="#FCFCFC" stroke-width="1.68256" stroke-linecap="butt" stroke-linejoin="round" stroke-miterlimit="10" stroke-opacity="1" fill="none" fill-rule="nonzero" transform="matrix(1.00083 0 0 -1 30 685.579)"/><path d="M563.017 78.4237 563.017 72.8151" stroke="#FCFCFC" stroke-width="1.68256" stroke-linecap="butt" stroke-linejoin="round" stroke-miterlimit="10" stroke-opacity="1" fill="none" fill-rule="nonzero" transform="matrix(1.00083 0 0 -1 30 685.579)"/><path d="M577.994 78.4237 577.994 72.8151" stroke="#FCFCFC" stroke-width="1.68256" stroke-linecap="butt" stroke-linejoin="round" stroke-miterlimit="10" stroke-opacity="1" fill="none" fill-rule="nonzero" transform="matrix(1.00083 0 0 -1 30 685.579)"/><path d="M588.62 78.4237 588.62 72.8151" stroke="#FCFCFC" stroke-width="1.68256" stroke-linecap="butt" stroke-linejoin="round" stroke-miterlimit="10" stroke-opacity="1" fill="none" fill-rule="nonzero" transform="matrix(1.00083 0 0 -1 30 685.579)"/><path d="M596.861 78.4237 596.861 72.8151" stroke="#FCFCFC" stroke-width="1.68256" stroke-linecap="butt" stroke-linejoin="round" stroke-miterlimit="10" stroke-opacity="1" fill="none" fill-rule="nonzero" transform="matrix(1.00083 0 0 -1 30 685.579)"/><path d="M603.597 78.4237 603.597 72.8151" stroke="#FCFCFC" stroke-width="1.68256" stroke-linecap="butt" stroke-linejoin="round" stroke-miterlimit="10" stroke-opacity="1" fill="none" fill-rule="nonzero" transform="matrix(1.00083 0 0 -1 30 685.579)"/><path d="M609.29 78.4237 609.29 72.8151" stroke="#FCFCFC" stroke-width="1.68256" stroke-linecap="butt" stroke-linejoin="round" stroke-miterlimit="10" stroke-opacity="1" fill="none" fill-rule="nonzero" transform="matrix(1.00083 0 0 -1 30 685.579)"/><path d="M614.223 78.4237 614.223 72.8151" stroke="#FCFCFC" stroke-width="1.68256" stroke-linecap="butt" stroke-linejoin="round" stroke-miterlimit="10" stroke-opacity="1" fill="none" fill-rule="nonzero" transform="matrix(1.00083 0 0 -1 30 685.579)"/><path d="M618.572 78.4237 618.572 72.8151" stroke="#FCFCFC" stroke-width="1.68256" stroke-linecap="butt" stroke-linejoin="round" stroke-miterlimit="10" stroke-opacity="1" fill="none" fill-rule="nonzero" transform="matrix(1.00083 0 0 -1 30 685.579)"/><path d="M648.067 78.4237 648.067 72.8151" stroke="#FCFCFC" stroke-width="1.68256" stroke-linecap="butt" stroke-linejoin="round" stroke-miterlimit="10" stroke-opacity="1" fill="none" fill-rule="nonzero" transform="matrix(1.00083 0 0 -1 30 685.579)"/><path d="M0.232219-9.89012C0.462254-9.89012 0.626567-9.89012 0.856603-9.89012 1.71103-9.89012 1.87534-9.66009 1.87534-8.47705L1.87534 3.28771C1.87534 4.60221 1.61244 4.86511 0.133631 5.02941L0.133631 5.45661 6.21317 5.45661 6.21317 4.99655C4.34001 4.96368 4.01141 4.70078 4.01141 3.12338L4.01141-0.8201C4.86581 0.00146101 5.49021 0.26436 6.54181 0.26436 9.49943 0.26436 11.8327-2.56181 11.8327-6.20953 11.8327-9.33146 10.0581-11.5661 7.62627-11.5661 6.21317-11.5661 5.09584-10.9417 4.01141-9.56152L4.01141-11.5004 3.84708-11.5661C2.49973-11.0403 1.61244-10.7117 0.232218-10.2845ZM4.01141-8.41132C4.01141-9.13429 5.39161-10.0544 6.57467-10.0544 8.41497-10.0544 9.66373-8.14842 9.66373-5.22366 9.66373-2.43036 8.41497-0.557201 6.60754-0.557201 5.42448-0.557201 4.01141-1.44449 4.01141-2.20032ZM23.6796-1.64166C23.2523-1.31304 22.9566-1.18159 22.5622-1.18159 22.0036-1.18159 21.8393-1.54307 21.8393-2.62753L21.8393-7.52402C21.8393-8.83852 21.7078-9.56152 21.3135-10.1859 20.7548-11.0732 19.6703-11.5661 18.1915-11.5661 15.8254-11.5661 13.9852-10.3173 13.9852-8.73995 13.9852-8.18129 14.4781-7.65549 15.0696-7.65549 15.6611-7.65549 16.1869-8.18129 16.1869-8.70709 16.1869-8.83852 16.1541-8.93712 16.1541-9.13429 16.0883-9.36432 16.0555-9.56152 16.0555-9.72582 16.0555-10.4159 16.877-10.9746 17.8629-10.9746 19.1117-10.9746 19.8018-10.2188 19.8018-8.87139L19.8018-7.32686C15.924-5.78233 15.4968-5.58516 14.4124-4.63213 13.8537-4.10633 13.4922-3.25193 13.4922-2.43036 13.4922-0.85296 14.6095 0.26436 16.1541 0.26436 17.2385 0.26436 18.2901-0.261438 19.8018-1.57594 19.9332-0.261438 20.3933 0.26436 21.412 0.26436 22.2665 0.26436 22.7923-0.0642638 23.6796-1.01727ZM19.8018-3.0876C19.8018-2.29891 19.6703-2.06887 19.1445-1.77311 18.5201-1.44449 17.83-1.21445 17.3042-1.21445 16.417-1.21445 15.7268-2.06887 15.7268-3.15333L15.7268-3.2519C15.7268-4.73073 16.7456-5.61803 19.8018-6.73533ZM23.8767-9.79155C24.2382-9.89012 24.4683-9.89012 24.764-9.89012 25.3884-9.89012 25.6184-9.49578 25.6184-8.41132L25.6184-2.10173C25.6184-0.85296 25.4541-0.688648 23.8439-0.360025L23.8439 0.00146101 29.8578 0.00146101 29.8578-0.360025C28.1489-0.458611 27.7216-0.8201 27.7216-2.26605L27.7216-7.91839C27.7216-8.70709 28.8062-9.98872 29.4963-9.98872 29.6604-9.98872 29.8578-9.85725 30.1534-9.59435 30.5479-9.26575 30.8107-9.10142 31.1393-9.10142 31.7638-9.10142 32.1253-9.52865 32.1253-10.2188 32.1253-11.0732 31.5995-11.5661 30.7451-11.5661 29.6935-11.5661 28.9705-10.9746 27.7216-9.20002L27.7216-11.5004 27.6231-11.5661C26.2757-11.0074 25.3555-10.6788 23.8767-10.2188ZM38.4677-11.3032 35.9371-11.3032 35.9371-14.228C35.9371-14.4909 35.9043-14.5566 35.74-14.5566 35.5757-14.3265 35.4444-14.0965 35.247-13.8665 34.2941-12.4534 33.2097-11.2703 32.8154-11.1718 32.5524-10.9746 32.3881-10.8103 32.3881-10.6788 32.3881-10.6131 32.4209-10.5474 32.4868-10.5145L33.834-10.5145 33.834-2.95617C33.834-0.8201 34.5569 0.264361 36.0687 0.264361 37.2846 0.264361 38.2375-0.360025 39.0591-1.64166L38.7305-1.93742C38.2047-1.31304 37.7776-1.05014 37.2518-1.05014 36.2986-1.05014 35.9371-1.74025 35.9371-3.31764L35.9371-10.5145 38.4677-10.5145ZM43.4299-11.5661 39.5193-10.1859 39.5193-9.79155 39.7164-9.82442C40.0451-9.89012 40.3738-9.89012 40.5709-9.89012 41.1951-9.89012 41.4254-9.49578 41.4254-8.41132L41.4254-2.56181C41.4254-0.754374 41.1623-0.491475 39.4206-0.360025L39.4206 0.00146101 45.4015 0.00146101 45.4015-0.360025C43.7257-0.491475 43.5286-0.754374 43.5286-2.56181L43.5286-11.5004ZM42.2467-17.1527C41.5566-17.1527 40.998-16.5941 40.998-15.8711 40.998-15.181 41.5238-14.5894 42.2467-14.5894 42.9697-14.5894 43.5614-15.1481 43.5614-15.8711 43.5614-16.5941 42.9697-17.1527 42.2467-17.1527ZM55.975-3.90917C54.7922-2.16746 53.8718-1.54307 52.4587-1.54307 50.1584-1.54307 48.5482-3.58053 48.5482-6.47243 48.5482-9.03572 49.9284-10.8431 51.966-10.8431 52.8861-10.8431 53.2148-10.5474 53.4447-9.62722L53.609-9.06856C53.8062-8.37846 54.2664-7.91839 54.7922-7.91839 55.4492-7.91839 55.975-8.41132 55.975-8.96999 55.975-10.3831 54.2333-11.5661 52.1301-11.5661 50.8813-11.5661 49.5998-11.0732 48.581-10.153 47.3323-9.03572 46.6093-7.32686 46.6093-5.35513 46.6093-2.06887 48.6138 0.26436 51.3743 0.26436 52.5246 0.26436 53.5103-0.162851 54.4307-0.918687 55.1205-1.54307 55.5807-2.20032 56.3365-3.67913ZM57.6183-15.6739 57.7495-15.6739C58.0454-15.6739 58.3412-15.7068 58.5384-15.7068 59.3269-15.7068 59.59-15.3453 59.59-14.1622L59.59-2.20032C59.59-0.8201 59.2285-0.491477 57.6511-0.360028L57.6511 0.00146101 63.5992 0.00146101 63.5992-0.360025C61.989-0.491475 61.6932-0.721511 61.6932-2.10173L61.6932-17.1199 61.5944-17.1527C60.2801-16.7255 59.3269-16.4955 57.6183-16.0683ZM74.3451-4.10633C73.1292-2.20032 72.0776-1.47735 70.4674-1.47735 69.0215-1.47735 67.9371-2.20032 67.2142-3.64627 66.754-4.59927 66.5897-5.42083 66.5241-6.96536L74.2795-6.96536C74.0824-8.60849 73.8193-9.33146 73.1951-10.1202 72.4391-11.0403 71.289-11.5661 69.9744-11.5661 68.7257-11.5661 67.5426-11.106 66.5897-10.2516 65.4066-9.23289 64.7164-7.42546 64.7164-5.38796 64.7164-1.90456 66.5241 0.26436 69.4158 0.26436 71.8148 0.26436 73.6878-1.21445 74.7394-3.94203ZM66.5897-7.75406C66.8524-9.72582 67.7069-10.646 69.2515-10.646 70.7633-10.646 71.3875-9.95585 71.7161-7.75406ZM89.4374-7.88552 89.3387-11.3032 89.0428-11.3032 89.01-11.2703C88.7801-11.0732 88.7473-11.0732 88.6485-11.0732 88.517-11.0732 88.2543-11.106 87.9912-11.2375 87.4326-11.4346 86.874-11.5332 86.2167-11.5332 84.245-11.5332 82.7991-10.2516 82.7991-8.44419 82.7991-7.03109 83.5877-6.04523 85.7568-4.82933L87.2027-4.00776C88.0899-3.48197 88.517-2.89043 88.517-2.10173 88.517-1.01728 87.6957-0.294301 86.4138-0.294301 85.5594-0.294301 84.7708-0.622927 84.3106-1.18159 83.7848-1.80597 83.5549-2.3975 83.2262-3.81057L82.8319-3.81057 82.8319 0.100047 83.1606 0.100047C83.3249-0.162852 83.4234-0.195715 83.7192-0.195715 83.9492-0.195715 84.3106-0.162852 84.9023 0.00145961 85.5925 0.165773 86.2826 0.26436 86.7097 0.26436 88.6485 0.26436 90.2587-1.21445 90.2587-2.95617 90.2587-4.2378 89.6673-5.05936 88.1556-5.94663L85.4281-7.55689C84.738-7.98412 84.3437-8.60849 84.3437-9.26575 84.3437-10.2845 85.1323-10.9746 86.2826-10.9746 87.7285-10.9746 88.4842-10.1202 89.0428-7.88552ZM95.6729-11.5661 91.7624-10.1859 91.7624-9.79155 91.9595-9.82442C92.2882-9.89012 92.6166-9.89012 92.814-9.89012 93.4382-9.89012 93.6682-9.49578 93.6682-8.41132L93.6682-2.56181C93.6682-0.754374 93.4054-0.491475 91.6637-0.360025L91.6637 0.00146101 97.6446 0.00146101 97.6446-0.360025C95.9688-0.491475 95.7714-0.754374 95.7714-2.56181L95.7714-11.5004ZM94.4898-17.1527C93.7997-17.1527 93.2411-16.5941 93.2411-15.8711 93.2411-15.181 93.7669-14.5894 94.4898-14.5894 95.2128-14.5894 95.8044-15.1481 95.8044-15.8711 95.8044-16.5941 95.2128-17.1527 94.4898-17.1527ZM108.752-3.38337 108.292-3.48197C108.029-2.23318 107.898-1.83883 107.569-1.41162 107.208-0.98441 106.353-0.754374 105.072-0.754374L101.621-0.754374 108.358-10.9417 108.358-11.3032 99.6494-11.3032 99.5835-8.34559 100.011-8.34559C100.241-10.1859 100.635-10.5474 102.147-10.5474L105.597-10.5474 98.9262-0.360025 98.9262 0.00146101 108.391 0.00146101ZM119.63-4.10633C118.414-2.20032 117.362-1.47735 115.752-1.47735 114.306-1.47735 113.221-2.20032 112.498-3.64627 112.038-4.59927 111.874-5.42083 111.808-6.96536L119.564-6.96536C119.367-8.60849 119.104-9.33146 118.479-10.1202 117.724-11.0403 116.573-11.5661 115.259-11.5661 114.01-11.5661 112.827-11.106 111.874-10.2516 110.691-9.23289 110.001-7.42546 110.001-5.38796 110.001-1.90456 111.808 0.26436 114.7 0.26436 117.099 0.26436 118.972-1.21445 120.024-3.94203ZM111.874-7.75406C112.137-9.72582 112.991-10.646 114.536-10.646 116.048-10.646 116.672-9.95585 117.001-7.75406Z" fill="#FFFFFF" fill-rule="nonzero" fill-opacity="1" transform="matrix(1.00083 0 0 1 313.647 677.612)"/><path d="M138.739-2.75898C138.345-2.3975 138.213-2.26605 138.049-2.06887 137.293-1.28017 136.965-1.01727 136.735-1.01727 136.537-1.01727 136.373-1.18159 136.373-1.3459 136.373-1.8717 137.425-6.14383 138.608-10.4817 138.673-10.7445 138.706-10.7774 138.772-11.0074L138.575-11.0732 137.063-10.9089 136.965-10.8431 136.701-9.62722C136.504-10.5474 135.781-11.0732 134.697-11.0732 131.378-11.0732 127.5-6.47243 127.5-2.49608 127.5-0.754374 128.453 0.264361 130.064 0.264361 131.838 0.264361 132.89-0.557201 135.124-3.67913 134.598-1.70738 134.533-1.37876 134.533-0.787237 134.533-0.0642633 134.829 0.264361 135.551 0.264361 136.537 0.264361 137.194-0.228575 139.035-2.49608ZM134.829-10.5474C135.683-10.4817 136.242-9.89012 136.242-9.00285 136.242-6.89966 134.993-3.90917 133.251-2.06887 132.659-1.37876 131.805-0.95155 131.082-0.95155 130.195-0.95155 129.603-1.67452 129.603-2.8247 129.603-4.20493 130.556-6.80106 131.641-8.34559 132.659-9.79155 133.843-10.6131 134.829-10.5474Z" fill="#FFFFFF" fill-rule="nonzero" fill-opacity="1" transform="matrix(1.00083 0 0 1 313.647 677.612)"/><path d="M153.461 3.28771 151.293 3.28771C150.471 3.28771 150.044 2.86049 150.044 1.97321L150.044-14.9181C150.044-15.6739 150.372-16.0025 151.194-16.0025L153.461-16.0025 153.461-16.6269 148.138-16.6269 148.138 3.91208 153.461 3.91208ZM164.273-3.90917C163.09-2.16746 162.17-1.54307 160.757-1.54307 158.457-1.54307 156.846-3.58053 156.846-6.47243 156.846-9.03572 158.226-10.8431 160.264-10.8431 161.184-10.8431 161.513-10.5474 161.743-9.62722L161.907-9.06856C162.104-8.37846 162.564-7.91839 163.09-7.91839 163.747-7.91839 164.273-8.41132 164.273-8.96999 164.273-10.3831 162.532-11.5661 160.428-11.5661 159.18-11.5661 157.898-11.0732 156.879-10.153 155.63-9.03572 154.907-7.32686 154.907-5.35513 154.907-2.06887 156.912 0.26436 159.673 0.26436 160.823 0.26436 161.809-0.162851 162.729-0.918687 163.419-1.54307 163.879-2.20032 164.635-3.67913ZM165.916-9.98872C166.212-10.0873 166.442-10.1202 166.705-10.1202 167.362-10.1202 167.592-9.69295 167.592-8.50992L167.592-2.1346C167.592-0.787237 167.231-0.392888 165.818-0.360025L165.818 0.00146101 171.404 0.00146101 171.404-0.360025C170.09-0.425751 169.696-0.68865 169.696-1.67452L169.696-8.77282C169.696-8.83852 169.893-9.06856 170.09-9.26575 170.714-9.82442 171.799-10.2516 172.653-10.2516 173.77-10.2516 174.329-9.36432 174.329-7.62262L174.329-2.16746C174.329-0.754374 174.033-0.491475 172.62-0.360025L172.62 0.00146101 178.24 0.00146101 178.24-0.360025C176.827-0.392888 176.432-0.8201 176.432-2.3975L176.432-8.70709C177.188-9.79155 178.01-10.2516 179.16-10.2516 180.606-10.2516 181.066-9.56152 181.066-7.49116L181.066-2.20032C181.066-0.754374 180.869-0.557201 179.39-0.360025L179.39 0.00146101 184.911 0.00146101 184.911-0.360025 184.254-0.425751C183.498-0.491475 183.169-0.918687 183.169-1.90456L183.169-7.09682C183.169-10.0544 182.183-11.5661 180.244-11.5661 178.798-11.5661 177.517-10.9089 176.169-9.46292 175.709-10.876 174.855-11.5661 173.507-11.5661 172.39-11.5661 171.667-11.2046 169.597-9.62722L169.597-11.5004 169.433-11.5661C168.151-11.0732 167.297-10.8103 165.916-10.4159ZM185.814 3.28771 185.814 3.91208 191.105 3.91208 191.105-16.6269 185.814-16.6269 185.814-16.0025 187.984-16.0025C188.805-16.0025 189.199-15.5753 189.199-14.7209L189.199 2.20324C189.199 2.95908 188.871 3.28771 188.082 3.28771Z" fill="#FFFFFF" fill-rule="nonzero" fill-opacity="1" transform="matrix(1.00083 0 0 1 313.647 677.612)"/><path d="M112.16 78.4237 102.345 78.4237" stroke="#FCFCFC" stroke-width="2.24341" stroke-linecap="butt" stroke-linejoin="round" stroke-miterlimit="10" stroke-opacity="1" fill="none" fill-rule="nonzero" transform="matrix(1.00083 0 0 -1 30 685.579)"/><path d="M7.32431-16.9877 2.7893-14.7202 2.7893-14.3587C3.08505-14.4902 3.38082-14.5887 3.47941-14.6216 3.90661-14.8188 4.33384-14.9174 4.59674-14.9174 5.12254-14.9174 5.35257-14.523 5.35257-13.7343L5.35257-2.33107C5.35257-1.50951 5.15541-0.917988 4.76104-0.687952 4.36671-0.490776 4.00521-0.39219 2.95361-0.359327L2.95361 0.00215928 9.88757 0.00215928 9.88757-0.359327C7.91584-0.39219 7.52147-0.655089 7.52147-1.871L7.52147-16.9548ZM18.9494-16.9877C17.5692-16.9877 16.5176-16.5605 15.5974-15.6732 14.1186-14.293 13.1656-11.4011 13.1656-8.44349 13.1656-5.71589 14.02-2.75828 15.2031-1.3452 16.1232-0.26074 17.4049 0.363645 18.8508 0.363645 20.1325 0.363645 21.2169-0.0635656 22.1371-0.950852 23.583-2.33107 24.536-5.25583 24.536-8.27916 24.536-13.4386 22.2685-16.9877 18.9494-16.9877ZM18.8837-16.3305C20.9869-16.3305 22.1371-13.5043 22.1371-8.24632 22.1371-2.98833 21.0197-0.293603 18.8508-0.293603 16.6819-0.293603 15.5974-2.98833 15.5974-8.21345 15.5974-13.5371 16.7148-16.3305 18.8837-16.3305Z" fill="#FFFFFF" fill-rule="nonzero" fill-opacity="1" transform="matrix(1.00083 0 0 1 72.4482 615.715)"/><path d="M38.026-13.6275C38.3547-13.6275 38.7162-13.6275 38.7162-14.0219 38.7162-14.4162 38.3547-14.4162 38.026-14.4162L27.4443-14.4162C27.1157-14.4162 26.7542-14.4162 26.7542-14.0219 26.7542-13.6275 27.1157-13.6275 27.4443-13.6275Z" fill="#FFFFFF" fill-rule="nonzero" fill-opacity="1" transform="matrix(1.00083 0 0 1 72.4482 615.715)"/><path d="M49.0513-22.5004C46.8496-22.3032 45.6993-21.9417 44.2863-20.923 42.1503-19.4442 41-17.2095 41-14.5806 41-12.8717 41.5258-11.1629 42.3802-10.177 43.1032-9.32257 44.1878-8.86247 45.4038-8.86247 47.8025-8.86247 49.4786-10.7028 49.4786-13.3975 49.4786-15.895 48.0656-17.5053 45.8309-17.5053 44.9436-17.5053 44.5493-17.341 43.3006-16.618 43.8592-19.5756 46.028-21.6788 49.1172-22.1718ZM45.0751-16.5851C46.7509-16.5851 47.7369-15.1721 47.7369-12.7403 47.7369-10.6042 46.9812-9.38827 45.6009-9.38827 43.892-9.38827 42.8404-11.2286 42.8404-14.2519 42.8404-15.2707 42.9719-15.7965 43.3662-16.0922 43.7933-16.4208 44.385-16.5851 45.0751-16.5851Z" fill="#FFFFFF" fill-rule="nonzero" fill-opacity="1" transform="matrix(1.00083 0 0 1 72.4482 615.715)"/><path d="M112.16 139.41 102.345 139.41" stroke="#FFFFFF" stroke-width="2.24341" stroke-linecap="butt" stroke-linejoin="round" stroke-miterlimit="10" stroke-opacity="1" fill="none" fill-rule="nonzero" transform="matrix(1.00083 0 0 -1 30 685.579)"/><path d="M7.32431-16.9858 2.7893-14.7183 2.7893-14.3568C3.08505-14.4882 3.38082-14.5868 3.47941-14.6197 3.90661-14.8168 4.33384-14.9154 4.59674-14.9154 5.12254-14.9154 5.35257-14.5211 5.35257-13.7324L5.35257-2.32913C5.35257-1.50757 5.15541-0.916048 4.76104-0.686012 4.36671-0.488836 4.00521-0.390249 2.95361-0.357386L2.95361 0.00410036 9.88757 0.00410036 9.88757-0.357386C7.91584-0.390249 7.52147-0.653149 7.52147-1.86906L7.52147-16.9529ZM18.9494-16.9858C17.5692-16.9858 16.5176-16.5586 15.5974-15.6713 14.1186-14.291 13.1656-11.3991 13.1656-8.44155 13.1656-5.71396 14.02-2.75634 15.2031-1.34326 16.1232-0.258799 17.4049 0.365586 18.8508 0.365586 20.1325 0.365586 21.2169-0.0616244 22.1371-0.948911 23.583-2.32913 24.536-5.25389 24.536-8.27722 24.536-13.4366 22.2685-16.9858 18.9494-16.9858ZM18.8837-16.3285C20.9869-16.3285 22.1371-13.5023 22.1371-8.24436 22.1371-2.98637 21.0197-0.291663 18.8508-0.291663 16.6819-0.291663 15.5974-2.98637 15.5974-8.21152 15.5974-13.5352 16.7148-16.3285 18.8837-16.3285Z" fill="#FFFFFF" fill-rule="nonzero" fill-opacity="1" transform="matrix(1.00083 0 0 1 72.4482 554.729)"/><path d="M38.026-13.6256C38.3547-13.6256 38.7162-13.6256 38.7162-14.0199 38.7162-14.4143 38.3547-14.4143 38.026-14.4143L27.4443-14.4143C27.1157-14.4143 26.7542-14.4143 26.7542-14.0199 26.7542-13.6256 27.1157-13.6256 27.4443-13.6256Z" fill="#FFFFFF" fill-rule="nonzero" fill-opacity="1" transform="matrix(1.00083 0 0 1 72.4482 554.729)"/><path d="M43.892-20.5267 47.7041-20.5267C48.0328-20.5267 48.0984-20.5596 48.164-20.691L48.92-22.4327 48.7226-22.5642C48.427-22.1698 48.2299-22.0712 47.8353-22.0712L43.7605-22.0712 41.6245-17.4376C41.5917-17.4048 41.5917-17.3719 41.5917-17.339 41.5917-17.2404 41.6573-17.1747 41.8216-17.1747 42.4461-17.1747 43.2347-17.0433 44.0235-16.7804 46.291-16.0574 47.3095-14.8415 47.3095-12.9026 47.3095-11.0295 46.1267-9.5835 44.6149-9.5835 44.2207-9.5835 43.892-9.71497 43.3006-10.1422 42.6761-10.6022 42.2159-10.7994 41.8216-10.7994 41.2302-10.7994 40.9672-10.5365 40.9672-10.0764 40.9672-9.3206 41.8872-8.86054 43.3662-8.86054 45.0092-8.86054 46.3895-9.38633 47.3754-10.3722 48.2955-11.2595 48.6898-12.3768 48.6898-13.8556 48.6898-15.2687 48.3283-16.156 47.3426-17.1419 46.4882-17.9963 45.3707-18.4564 43.0703-18.8507Z" fill="#FFFFFF" fill-rule="nonzero" fill-opacity="1" transform="matrix(1.00083 0 0 1 72.4482 554.729)"/><path d="M112.16 200.396 102.345 200.396" stroke="#FFFFFF" stroke-width="2.24341" stroke-linecap="butt" stroke-linejoin="round" stroke-miterlimit="10" stroke-opacity="1" fill="none" fill-rule="nonzero" transform="matrix(1.00083 0 0 -1 30 685.579)"/><path d="M7.32431-16.992 2.7893-14.7246 2.7893-14.3631C3.08505-14.4945 3.38082-14.5931 3.47941-14.626 3.90661-14.8231 4.33384-14.9217 4.59674-14.9217 5.12254-14.9217 5.35257-14.5274 5.35257-13.7387L5.35257-2.33541C5.35257-1.51385 5.15541-0.922321 4.76104-0.692285 4.36671-0.495112 4.00521-0.396522 2.95361-0.363662L2.95361-0.00217417 9.88757-0.00217417 9.88757-0.363662C7.91584-0.396522 7.52147-0.659422 7.52147-1.87533L7.52147-16.9592ZM18.9494-16.992C17.5692-16.992 16.5176-16.5648 15.5974-15.6776 14.1186-14.2973 13.1656-11.4054 13.1656-8.4478 13.1656-5.72024 14.02-2.76262 15.2031-1.34953 16.1232-0.265074 17.4049 0.359313 18.8508 0.359313 20.1325 0.359313 21.2169-0.067899 22.1371-0.955184 23.583-2.33541 24.536-5.26017 24.536-8.2835 24.536-13.4429 22.2685-16.992 18.9494-16.992ZM18.8837-16.3348C20.9869-16.3348 22.1371-13.5086 22.1371-8.25064 22.1371-2.99265 21.0197-0.297936 18.8508-0.297936 16.6819-0.297936 15.5974-2.99265 15.5974-8.21777 15.5974-13.5415 16.7148-16.3348 18.8837-16.3348Z" fill="#FFFFFF" fill-rule="nonzero" fill-opacity="1" transform="matrix(1.00083 0 0 1 72.4482 493.742)"/><path d="M38.026-13.6319C38.3547-13.6319 38.7162-13.6319 38.7162-14.0262 38.7162-14.4206 38.3547-14.4206 38.026-14.4206L27.4443-14.4206C27.1157-14.4206 26.7542-14.4206 26.7542-14.0262 26.7542-13.6319 27.1157-13.6319 27.4443-13.6319Z" fill="#FFFFFF" fill-rule="nonzero" fill-opacity="1" transform="matrix(1.00083 0 0 1 72.4482 493.742)"/><path d="M49.5771-13.6319 47.5726-13.6319 47.5726-22.3404 46.7181-22.3404 40.5729-13.6319 40.5729-12.3831 46.0608-12.3831 46.0608-9.12972 47.5726-9.12972 47.5726-12.3831 49.5771-12.3831ZM46.0608-13.6319 41.3614-13.6319 46.0608-20.3687Z" fill="#FFFFFF" fill-rule="nonzero" fill-opacity="1" transform="matrix(1.00083 0 0 1 72.4482 493.742)"/><path d="M112.16 261.383 102.345 261.383" stroke="#FFFFFF" stroke-width="2.24341" stroke-linecap="butt" stroke-linejoin="round" stroke-miterlimit="10" stroke-opacity="1" fill="none" fill-rule="nonzero" transform="matrix(1.00083 0 0 -1 30 685.579)"/><path d="M7.32431-16.9901 2.7893-14.7226 2.7893-14.3611C3.08505-14.4926 3.38082-14.5912 3.47941-14.624 3.90661-14.8212 4.33384-14.9198 4.59674-14.9198 5.12254-14.9198 5.35257-14.5254 5.35257-13.7367L5.35257-2.33346C5.35257-1.51191 5.15541-0.92038 4.76104-0.690344 4.36671-0.493168 4.00521-0.394582 2.95361-0.361719L2.95361-0.000233098 9.88757-0.000233098 9.88757-0.361719C7.91584-0.394582 7.52147-0.657481 7.52147-1.87339L7.52147-16.9572ZM18.9494-16.9901C17.5692-16.9901 16.5176-16.5629 15.5974-15.6756 14.1186-14.2954 13.1656-11.4035 13.1656-8.44587 13.1656-5.71831 14.02-2.76068 15.2031-1.34759 16.1232-0.263132 17.4049 0.361253 18.8508 0.361253 20.1325 0.361253 21.2169-0.0659579 22.1371-0.953244 23.583-2.33346 24.536-5.25821 24.536-8.28157 24.536-13.441 22.2685-16.9901 18.9494-16.9901ZM18.8837-16.3328C20.9869-16.3328 22.1371-13.5067 22.1371-8.2487 22.1371-2.99072 21.0197-0.295995 18.8508-0.295995 16.6819-0.295995 15.5974-2.99072 15.5974-8.21584 15.5974-13.5396 16.7148-16.3328 18.8837-16.3328Z" fill="#FFFFFF" fill-rule="nonzero" fill-opacity="1" transform="matrix(1.00083 0 0 1 72.4482 432.756)"/><path d="M38.026-13.6299C38.3547-13.6299 38.7162-13.6299 38.7162-14.0243 38.7162-14.4186 38.3547-14.4186 38.026-14.4186L27.4443-14.4186C27.1157-14.4186 26.7542-14.4186 26.7542-14.0243 26.7542-13.6299 27.1157-13.6299 27.4443-13.6299Z" fill="#FFFFFF" fill-rule="nonzero" fill-opacity="1" transform="matrix(1.00083 0 0 1 72.4482 432.756)"/><path d="M43.3334-15.5688C44.4834-15.5688 44.9436-15.5359 45.4038-15.3716 46.6194-14.9444 47.3754-13.8271 47.3754-12.4797 47.3754-10.8366 46.2579-9.55498 44.8121-9.55498 44.2863-9.55498 43.892-9.68645 43.1691-10.1794 42.5774-10.508 42.249-10.6394 41.9203-10.6394 41.493-10.6394 41.1974-10.3765 41.1974-9.98218 41.1974-9.29208 42.0187-8.86488 43.399-8.86488 44.9108-8.86488 46.4554-9.35781 47.3754-10.1794 48.2955-10.9681 48.7885-12.0854 48.7885-13.3999 48.7885-14.4186 48.4927-15.3388 47.9012-15.9303 47.507-16.3575 47.1452-16.5875 46.291-16.9819 47.6382-17.902 48.1312-18.625 48.1312-19.6766 48.1312-21.254 46.8825-22.3385 45.0751-22.3385 44.0891-22.3385 43.2347-22.0098 42.5445-21.3855 41.9531-20.8597 41.6573-20.3667 41.2302-19.1837L41.5258-19.0851C42.3146-20.531 43.2019-21.1883 44.4178-21.1883 45.6993-21.1883 46.5866-20.301 46.5866-19.0851 46.5866-18.3621 46.291-17.672 45.798-17.1791 45.2063-16.5875 44.6477-16.2918 43.3334-15.8317Z" fill="#FFFFFF" fill-rule="nonzero" fill-opacity="1" transform="matrix(1.00083 0 0 1 72.4482 432.756)"/><path d="M112.16 322.369 102.345 322.369" stroke="#FFFFFF" stroke-width="2.24341" stroke-linecap="butt" stroke-linejoin="round" stroke-miterlimit="10" stroke-opacity="1" fill="none" fill-rule="nonzero" transform="matrix(1.00083 0 0 -1 30 685.579)"/><path d="M7.32431-16.9881 2.7893-14.7207 2.7893-14.3592C3.08505-14.4906 3.38082-14.5892 3.47941-14.6221 3.90661-14.8193 4.33384-14.9178 4.59674-14.9178 5.12254-14.9178 5.35257-14.5235 5.35257-13.7348L5.35257-2.33152C5.35257-1.50996 5.15541-0.91844 4.76104-0.688404 4.36671-0.491228 4.00521-0.392641 2.95361-0.359778L2.95361 0.00170798 9.88757 0.00170798 9.88757-0.359778C7.91584-0.392641 7.52147-0.655541 7.52147-1.87145L7.52147-16.9553ZM18.9494-16.9881C17.5692-16.9881 16.5176-16.5609 15.5974-15.6737 14.1186-14.2935 13.1656-11.4016 13.1656-8.44393 13.1656-5.71634 14.02-2.75874 15.2031-1.34565 16.1232-0.261191 17.4049 0.363194 18.8508 0.363194 20.1325 0.363194 21.2169-0.0640168 22.1371-0.951303 23.583-2.33152 24.536-5.25628 24.536-8.27963 24.536-13.439 22.2685-16.9881 18.9494-16.9881ZM18.8837-16.3309C20.9869-16.3309 22.1371-13.5048 22.1371-8.24677 22.1371-2.98878 21.0197-0.294055 18.8508-0.294055 16.6819-0.294055 15.5974-2.98878 15.5974-8.2139 15.5974-13.5376 16.7148-16.3309 18.8837-16.3309Z" fill="#FFFFFF" fill-rule="nonzero" fill-opacity="1" transform="matrix(1.00083 0 0 1 72.4482 371.769)"/><path d="M38.026-13.628C38.3547-13.628 38.7162-13.628 38.7162-14.0223 38.7162-14.4167 38.3547-14.4167 38.026-14.4167L27.4443-14.4167C27.1157-14.4167 26.7542-14.4167 26.7542-14.0223 26.7542-13.628 27.1157-13.628 27.4443-13.628Z" fill="#FFFFFF" fill-rule="nonzero" fill-opacity="1" transform="matrix(1.00083 0 0 1 72.4482 371.769)"/><path d="M49.643-11.8205 49.3799-11.8863C48.657-10.8018 48.3942-10.6046 47.507-10.6046L42.8404-10.6046 46.1267-14.0552C47.8684-15.8626 48.6242-17.3414 48.6242-18.886 48.6242-20.8249 47.0468-22.3365 45.0092-22.3365 43.9248-22.3365 42.9388-21.9093 42.2159-21.1206 41.5588-20.4634 41.2958-19.839 40.9343-18.4588L41.3614-18.3602C42.1503-20.2662 42.8404-20.8906 44.1878-20.8906 45.8309-20.8906 46.9481-19.7733 46.9481-18.1301 46.9481-16.6185 46.0608-14.811 44.4178-13.0693L40.9343-9.35588 40.9343-9.12582 48.5586-9.12582Z" fill="#FFFFFF" fill-rule="nonzero" fill-opacity="1" transform="matrix(1.00083 0 0 1 72.4482 371.769)"/><path d="M112.16 383.356 102.345 383.356" stroke="#FFFFFF" stroke-width="2.24341" stroke-linecap="butt" stroke-linejoin="round" stroke-miterlimit="10" stroke-opacity="1" fill="none" fill-rule="nonzero" transform="matrix(1.00083 0 0 -1 30 685.579)"/><path d="M7.32431-16.9862 2.7893-14.7187 2.7893-14.3572C3.08505-14.4887 3.38082-14.5873 3.47941-14.6201 3.90661-14.8173 4.33384-14.9159 4.59674-14.9159 5.12254-14.9159 5.35257-14.5216 5.35257-13.7329L5.35257-2.32958C5.35257-1.50802 5.15541-0.916499 4.76104-0.686463 4.36671-0.489287 4.00521-0.390701 2.95361-0.357838L2.95361 0.00364904 9.88757 0.00364904 9.88757-0.357838C7.91584-0.390701 7.52147-0.6536 7.52147-1.86951L7.52147-16.9533ZM18.9494-16.9862C17.5692-16.9862 16.5176-16.559 15.5974-15.6717 14.1186-14.2915 13.1656-11.3996 13.1656-8.442 13.1656-5.71441 14.02-2.75679 15.2031-1.34371 16.1232-0.25925 17.4049 0.365134 18.8508 0.365134 20.1325 0.365134 21.2169-0.0620759 22.1371-0.94936 23.583-2.32958 24.536-5.25434 24.536-8.27767 24.536-13.4371 22.2685-16.9862 18.9494-16.9862ZM18.8837-16.329C20.9869-16.329 22.1371-13.5028 22.1371-8.2448 22.1371-2.98682 21.0197-0.292111 18.8508-0.292111 16.6819-0.292111 15.5974-2.98682 15.5974-8.21197 15.5974-13.5357 16.7148-16.329 18.8837-16.329Z" fill="#FFFFFF" fill-rule="nonzero" fill-opacity="1" transform="matrix(1.00083 0 0 1 72.4482 310.783)"/><path d="M38.026-13.626C38.3547-13.626 38.7162-13.626 38.7162-14.0204 38.7162-14.4147 38.3547-14.4147 38.026-14.4147L27.4443-14.4147C27.1157-14.4147 26.7542-14.4147 26.7542-14.0204 26.7542-13.626 27.1157-13.626 27.4443-13.626Z" fill="#FFFFFF" fill-rule="nonzero" fill-opacity="1" transform="matrix(1.00083 0 0 1 72.4482 310.783)"/><path d="M46.028-22.3346 42.5117-20.56 42.5117-20.2971C42.7417-20.3957 42.9719-20.4614 43.0375-20.4943 43.399-20.6257 43.7277-20.7243 43.9248-20.7243 44.3191-20.7243 44.5162-20.4286 44.5162-19.8042L44.5162-10.9313C44.5162-10.3069 44.3522-9.84685 44.0235-9.68255 43.7605-9.48538 43.4646-9.45251 42.6433-9.41965L42.6433-9.12388 48.0328-9.12388 48.0328-9.41965C46.4882-9.45251 46.1923-9.61682 46.1923-10.5698L46.1923-22.3017Z" fill="#FFFFFF" fill-rule="nonzero" fill-opacity="1" transform="matrix(1.00083 0 0 1 72.4482 310.783)"/><path d="M112.16 444.341 102.345 444.341" stroke="#FFFFFF" stroke-width="2.24341" stroke-linecap="butt" stroke-linejoin="round" stroke-miterlimit="10" stroke-opacity="1" fill="none" fill-rule="nonzero" transform="matrix(1.00083 0 0 -1 30 685.579)"/><path d="M5.68491-13.2133 2.16862-11.4387 2.16862-11.1758C2.39866-11.2744 2.6287-11.3402 2.69442-11.373 3.05591-11.5045 3.38455-11.603 3.58171-11.603 3.97605-11.603 4.17324-11.3073 4.17324-10.6829L4.17324-1.81006C4.17324-1.18567 4.00891-0.725597 3.68028-0.561284 3.41738-0.364111 3.12165-0.331248 2.30007-0.298384L2.30007-0.00262548 7.6895-0.00262548 7.6895-0.298387C6.14497-0.33125 5.84921-0.495563 5.84921-1.44857L5.84921-13.1804ZM17.5318-13.2133C16.4473-13.2133 15.6258-12.8847 14.9028-12.1946 13.7855-11.1101 13.0297-8.87548 13.0297-6.57512 13.0297-4.43906 13.6869-2.13868 14.6071-1.05422 15.33-0.1998 16.3159 0.260274 17.4661 0.260274 18.4519 0.260274 19.3064-0.0683502 19.9965-0.75846 21.1467-1.81006 21.8696-4.07756 21.8696-6.44366 21.8696-10.4529 20.0951-13.2133 17.5318-13.2133ZM17.4661-12.7204C19.1092-12.7204 19.9965-10.5186 19.9965-6.41079 19.9965-2.33586 19.1421-0.232662 17.4661-0.232662 15.7901-0.232662 14.9028-2.33586 14.9028-6.41079 14.9028-10.5515 15.7901-12.7204 17.4661-12.7204ZM30.1099-22.3409C29.0255-22.3409 28.2038-22.0122 27.4809-21.3221 26.3636-20.2377 25.6077-18.003 25.6077-15.7026 25.6077-13.5666 26.265-11.2662 27.1851-10.1818 27.9081-9.32733 28.894-8.86727 30.0443-8.86727 31.03-8.86727 31.8844-9.1959 32.5746-9.886 33.7249-10.9376 34.4478-13.2051 34.4478-15.5712 34.4478-19.5804 32.6733-22.3409 30.1099-22.3409ZM30.0443-21.8479C31.6873-21.8479 32.5746-19.6461 32.5746-15.5383 32.5746-11.4634 31.7201-9.3602 30.0443-9.3602 28.3682-9.3602 27.4809-11.4634 27.4809-15.5383 27.4809-19.679 28.3682-21.8479 30.0443-21.8479Z" fill="#FFFFFF" fill-rule="nonzero" fill-opacity="1" transform="matrix(1.00083 0 0 1 87.6559 249.796)"/><path d="M112.16 505.328 102.345 505.328" stroke="#FFFFFF" stroke-width="2.24341" stroke-linecap="butt" stroke-linejoin="round" stroke-miterlimit="10" stroke-opacity="1" fill="none" fill-rule="nonzero" transform="matrix(1.00083 0 0 -1 30 685.579)"/><path d="M5.68491-13.2114 2.16862-11.4368 2.16862-11.1739C2.39866-11.2725 2.6287-11.3382 2.69442-11.3711 3.05591-11.5025 3.38455-11.6011 3.58171-11.6011 3.97605-11.6011 4.17324-11.3053 4.17324-10.681L4.17324-1.80812C4.17324-1.18373 4.00891-0.723656 3.68028-0.559343 3.41738-0.36217 3.12165-0.329307 2.30007-0.296444L2.30007-0.000684402 7.6895-0.000684402 7.6895-0.296447C6.14497-0.32931 5.84921-0.49362 5.84921-1.44663L5.84921-13.1785ZM17.5318-13.2114C16.4473-13.2114 15.6258-12.8827 14.9028-12.1926 13.7855-11.1082 13.0297-8.87355 13.0297-6.57316 13.0297-4.43712 13.6869-2.13674 14.6071-1.05228 15.33-0.197859 16.3159 0.262215 17.4661 0.262215 18.4519 0.262215 19.3064-0.0664094 19.9965-0.756519 21.1467-1.80812 21.8696-4.07563 21.8696-6.44172 21.8696-10.4509 20.0951-13.2114 17.5318-13.2114ZM17.4661-12.7184C19.1092-12.7184 19.9965-10.5166 19.9965-6.40885 19.9965-2.33392 19.1421-0.230721 17.4661-0.230721 15.7901-0.230721 14.9028-2.33392 14.9028-6.40885 14.9028-10.5495 15.7901-12.7184 17.4661-12.7184ZM30.8328-22.3389 27.3166-20.5643 27.3166-20.3014C27.5466-20.4 27.7767-20.4658 27.8424-20.4986 28.2038-20.6301 28.5325-20.7286 28.7296-20.7286 29.1239-20.7286 29.3211-20.4329 29.3211-19.8085L29.3211-10.9357C29.3211-10.3113 29.157-9.8512 28.8284-9.68687 28.5653-9.4897 28.2695-9.45683 27.448-9.42397L27.448-9.12823 32.8376-9.12823 32.8376-9.42397C31.293-9.45683 30.9972-9.62116 30.9972-10.5742L30.9972-22.306Z" fill="#FFFFFF" fill-rule="nonzero" fill-opacity="1" transform="matrix(1.00083 0 0 1 87.6559 188.809)"/><path d="M112.16 96.7823 106.552 96.7823" stroke="#FFFFFF" stroke-width="1.68256" stroke-linecap="butt" stroke-linejoin="round" stroke-miterlimit="10" stroke-opacity="1" fill="none" fill-rule="nonzero" transform="matrix(1.00083 0 0 -1 30 685.579)"/><path d="M112.16 107.521 106.552 107.521" stroke="#FFFFFF" stroke-width="1.68256" stroke-linecap="butt" stroke-linejoin="round" stroke-miterlimit="10" stroke-opacity="1" fill="none" fill-rule="nonzero" transform="matrix(1.00083 0 0 -1 30 685.579)"/><path d="M112.16 115.141 106.552 115.141" stroke="#FFFFFF" stroke-width="1.68256" stroke-linecap="butt" stroke-linejoin="round" stroke-miterlimit="10" stroke-opacity="1" fill="none" fill-rule="nonzero" transform="matrix(1.00083 0 0 -1 30 685.579)"/><path d="M112.16 121.051 106.552 121.051" stroke="#FFFFFF" stroke-width="1.68256" stroke-linecap="butt" stroke-linejoin="round" stroke-miterlimit="10" stroke-opacity="1" fill="none" fill-rule="nonzero" transform="matrix(1.00083 0 0 -1 30 685.579)"/><path d="M112.16 125.88 106.552 125.88" stroke="#FFFFFF" stroke-width="1.68256" stroke-linecap="butt" stroke-linejoin="round" stroke-miterlimit="10" stroke-opacity="1" fill="none" fill-rule="nonzero" transform="matrix(1.00083 0 0 -1 30 685.579)"/><path d="M112.16 129.963 106.552 129.963" stroke="#FFFFFF" stroke-width="1.68256" stroke-linecap="butt" stroke-linejoin="round" stroke-miterlimit="10" stroke-opacity="1" fill="none" fill-rule="nonzero" transform="matrix(1.00083 0 0 -1 30 685.579)"/><path d="M112.16 133.5 106.552 133.5" stroke="#FFFFFF" stroke-width="1.68256" stroke-linecap="butt" stroke-linejoin="round" stroke-miterlimit="10" stroke-opacity="1" fill="none" fill-rule="nonzero" transform="matrix(1.00083 0 0 -1 30 685.579)"/><path d="M112.16 136.62 106.552 136.62" stroke="#FFFFFF" stroke-width="1.68256" stroke-linecap="butt" stroke-linejoin="round" stroke-miterlimit="10" stroke-opacity="1" fill="none" fill-rule="nonzero" transform="matrix(1.00083 0 0 -1 30 685.579)"/><path d="M112.16 157.769 106.552 157.769" stroke="#FFFFFF" stroke-width="1.68256" stroke-linecap="butt" stroke-linejoin="round" stroke-miterlimit="10" stroke-opacity="1" fill="none" fill-rule="nonzero" transform="matrix(1.00083 0 0 -1 30 685.579)"/><path d="M112.16 168.508 106.552 168.508" stroke="#FFFFFF" stroke-width="1.68256" stroke-linecap="butt" stroke-linejoin="round" stroke-miterlimit="10" stroke-opacity="1" fill="none" fill-rule="nonzero" transform="matrix(1.00083 0 0 -1 30 685.579)"/><path d="M112.16 176.127 106.552 176.127" stroke="#FFFFFF" stroke-width="1.68256" stroke-linecap="butt" stroke-linejoin="round" stroke-miterlimit="10" stroke-opacity="1" fill="none" fill-rule="nonzero" transform="matrix(1.00083 0 0 -1 30 685.579)"/><path d="M112.16 182.038 106.552 182.038" stroke="#FFFFFF" stroke-width="1.68256" stroke-linecap="butt" stroke-linejoin="round" stroke-miterlimit="10" stroke-opacity="1" fill="none" fill-rule="nonzero" transform="matrix(1.00083 0 0 -1 30 685.579)"/><path d="M112.16 186.867 106.552 186.867" stroke="#FFFFFF" stroke-width="1.68256" stroke-linecap="butt" stroke-linejoin="round" stroke-miterlimit="10" stroke-opacity="1" fill="none" fill-rule="nonzero" transform="matrix(1.00083 0 0 -1 30 685.579)"/><path d="M112.16 190.95 106.552 190.95" stroke="#FFFFFF" stroke-width="1.68256" stroke-linecap="butt" stroke-linejoin="round" stroke-miterlimit="10" stroke-opacity="1" fill="none" fill-rule="nonzero" transform="matrix(1.00083 0 0 -1 30 685.579)"/><path d="M112.16 194.486 106.552 194.486" stroke="#FFFFFF" stroke-width="1.68256" stroke-linecap="butt" stroke-linejoin="round" stroke-miterlimit="10" stroke-opacity="1" fill="none" fill-rule="nonzero" transform="matrix(1.00083 0 0 -1 30 685.579)"/><path d="M112.16 197.606 106.552 197.606" stroke="#FFFFFF" stroke-width="1.68256" stroke-linecap="butt" stroke-linejoin="round" stroke-miterlimit="10" stroke-opacity="1" fill="none" fill-rule="nonzero" transform="matrix(1.00083 0 0 -1 30 685.579)"/><path d="M112.16 218.755 106.552 218.755" stroke="#FFFFFF" stroke-width="1.68256" stroke-linecap="butt" stroke-linejoin="round" stroke-miterlimit="10" stroke-opacity="1" fill="none" fill-rule="nonzero" transform="matrix(1.00083 0 0 -1 30 685.579)"/><path d="M112.16 229.494 106.552 229.494" stroke="#FFFFFF" stroke-width="1.68256" stroke-linecap="butt" stroke-linejoin="round" stroke-miterlimit="10" stroke-opacity="1" fill="none" fill-rule="nonzero" transform="matrix(1.00083 0 0 -1 30 685.579)"/><path d="M112.16 237.114 106.552 237.114" stroke="#FFFFFF" stroke-width="1.68256" stroke-linecap="butt" stroke-linejoin="round" stroke-miterlimit="10" stroke-opacity="1" fill="none" fill-rule="nonzero" transform="matrix(1.00083 0 0 -1 30 685.579)"/><path d="M112.16 243.024 106.552 243.024" stroke="#FFFFFF" stroke-width="1.68256" stroke-linecap="butt" stroke-linejoin="round" stroke-miterlimit="10" stroke-opacity="1" fill="none" fill-rule="nonzero" transform="matrix(1.00083 0 0 -1 30 685.579)"/><path d="M112.16 247.853 106.552 247.853" stroke="#FFFFFF" stroke-width="1.68256" stroke-linecap="butt" stroke-linejoin="round" stroke-miterlimit="10" stroke-opacity="1" fill="none" fill-rule="nonzero" transform="matrix(1.00083 0 0 -1 30 685.579)"/><path d="M112.16 251.936 106.552 251.936" stroke="#FFFFFF" stroke-width="1.68256" stroke-linecap="butt" stroke-linejoin="round" stroke-miterlimit="10" stroke-opacity="1" fill="none" fill-rule="nonzero" transform="matrix(1.00083 0 0 -1 30 685.579)"/><path d="M112.16 255.473 106.552 255.473" stroke="#FFFFFF" stroke-width="1.68256" stroke-linecap="butt" stroke-linejoin="round" stroke-miterlimit="10" stroke-opacity="1" fill="none" fill-rule="nonzero" transform="matrix(1.00083 0 0 -1 30 685.579)"/><path d="M112.16 258.592 106.552 258.592" stroke="#FFFFFF" stroke-width="1.68256" stroke-linecap="butt" stroke-linejoin="round" stroke-miterlimit="10" stroke-opacity="1" fill="none" fill-rule="nonzero" transform="matrix(1.00083 0 0 -1 30 685.579)"/><path d="M112.16 279.741 106.552 279.741" stroke="#FFFFFF" stroke-width="1.68256" stroke-linecap="butt" stroke-linejoin="round" stroke-miterlimit="10" stroke-opacity="1" fill="none" fill-rule="nonzero" transform="matrix(1.00083 0 0 -1 30 685.579)"/><path d="M112.16 290.482 106.552 290.482" stroke="#FFFFFF" stroke-width="1.68256" stroke-linecap="butt" stroke-linejoin="round" stroke-miterlimit="10" stroke-opacity="1" fill="none" fill-rule="nonzero" transform="matrix(1.00083 0 0 -1 30 685.579)"/><path d="M112.16 298.101 106.552 298.101" stroke="#FFFFFF" stroke-width="1.68256" stroke-linecap="butt" stroke-linejoin="round" stroke-miterlimit="10" stroke-opacity="1" fill="none" fill-rule="nonzero" transform="matrix(1.00083 0 0 -1 30 685.579)"/><path d="M112.16 304.01 106.552 304.01" stroke="#FFFFFF" stroke-width="1.68256" stroke-linecap="butt" stroke-linejoin="round" stroke-miterlimit="10" stroke-opacity="1" fill="none" fill-rule="nonzero" transform="matrix(1.00083 0 0 -1 30 685.579)"/><path d="M112.16 308.839 106.552 308.839" stroke="#FFFFFF" stroke-width="1.68256" stroke-linecap="butt" stroke-linejoin="round" stroke-miterlimit="10" stroke-opacity="1" fill="none" fill-rule="nonzero" transform="matrix(1.00083 0 0 -1 30 685.579)"/><path d="M112.16 312.922 106.552 312.922" stroke="#FFFFFF" stroke-width="1.68256" stroke-linecap="butt" stroke-linejoin="round" stroke-miterlimit="10" stroke-opacity="1" fill="none" fill-rule="nonzero" transform="matrix(1.00083 0 0 -1 30 685.579)"/><path d="M112.16 316.458 106.552 316.458" stroke="#FFFFFF" stroke-width="1.68256" stroke-linecap="butt" stroke-linejoin="round" stroke-miterlimit="10" stroke-opacity="1" fill="none" fill-rule="nonzero" transform="matrix(1.00083 0 0 -1 30 685.579)"/><path d="M112.16 319.579 106.552 319.579" stroke="#FFFFFF" stroke-width="1.68256" stroke-linecap="butt" stroke-linejoin="round" stroke-miterlimit="10" stroke-opacity="1" fill="none" fill-rule="nonzero" transform="matrix(1.00083 0 0 -1 30 685.579)"/><path d="M112.16 340.729 106.552 340.729" stroke="#FFFFFF" stroke-width="1.68256" stroke-linecap="butt" stroke-linejoin="round" stroke-miterlimit="10" stroke-opacity="1" fill="none" fill-rule="nonzero" transform="matrix(1.00083 0 0 -1 30 685.579)"/><path d="M112.16 351.466 106.552 351.466" stroke="#FFFFFF" stroke-width="1.68256" stroke-linecap="butt" stroke-linejoin="round" stroke-miterlimit="10" stroke-opacity="1" fill="none" fill-rule="nonzero" transform="matrix(1.00083 0 0 -1 30 685.579)"/><path d="M112.16 359.085 106.552 359.085" stroke="#FFFFFF" stroke-width="1.68256" stroke-linecap="butt" stroke-linejoin="round" stroke-miterlimit="10" stroke-opacity="1" fill="none" fill-rule="nonzero" transform="matrix(1.00083 0 0 -1 30 685.579)"/><path d="M112.16 364.997 106.552 364.997" stroke="#FFFFFF" stroke-width="1.68256" stroke-linecap="butt" stroke-linejoin="round" stroke-miterlimit="10" stroke-opacity="1" fill="none" fill-rule="nonzero" transform="matrix(1.00083 0 0 -1 30 685.579)"/><path d="M112.16 369.826 106.552 369.826" stroke="#FFFFFF" stroke-width="1.68256" stroke-linecap="butt" stroke-linejoin="round" stroke-miterlimit="10" stroke-opacity="1" fill="none" fill-rule="nonzero" transform="matrix(1.00083 0 0 -1 30 685.579)"/><path d="M112.16 373.909 106.552 373.909" stroke="#FFFFFF" stroke-width="1.68256" stroke-linecap="butt" stroke-linejoin="round" stroke-miterlimit="10" stroke-opacity="1" fill="none" fill-rule="nonzero" transform="matrix(1.00083 0 0 -1 30 685.579)"/><path d="M112.16 377.445 106.552 377.445" stroke="#FFFFFF" stroke-width="1.68256" stroke-linecap="butt" stroke-linejoin="round" stroke-miterlimit="10" stroke-opacity="1" fill="none" fill-rule="nonzero" transform="matrix(1.00083 0 0 -1 30 685.579)"/><path d="M112.16 380.566 106.552 380.566" stroke="#FFFFFF" stroke-width="1.68256" stroke-linecap="butt" stroke-linejoin="round" stroke-miterlimit="10" stroke-opacity="1" fill="none" fill-rule="nonzero" transform="matrix(1.00083 0 0 -1 30 685.579)"/><path d="M112.16 401.713 106.552 401.713" stroke="#FFFFFF" stroke-width="1.68256" stroke-linecap="butt" stroke-linejoin="round" stroke-miterlimit="10" stroke-opacity="1" fill="none" fill-rule="nonzero" transform="matrix(1.00083 0 0 -1 30 685.579)"/><path d="M112.16 412.453 106.552 412.453" stroke="#FFFFFF" stroke-width="1.68256" stroke-linecap="butt" stroke-linejoin="round" stroke-miterlimit="10" stroke-opacity="1" fill="none" fill-rule="nonzero" transform="matrix(1.00083 0 0 -1 30 685.579)"/><path d="M112.16 420.073 106.552 420.073" stroke="#FFFFFF" stroke-width="1.68256" stroke-linecap="butt" stroke-linejoin="round" stroke-miterlimit="10" stroke-opacity="1" fill="none" fill-rule="nonzero" transform="matrix(1.00083 0 0 -1 30 685.579)"/><path d="M112.16 425.984 106.552 425.984" stroke="#FFFFFF" stroke-width="1.68256" stroke-linecap="butt" stroke-linejoin="round" stroke-miterlimit="10" stroke-opacity="1" fill="none" fill-rule="nonzero" transform="matrix(1.00083 0 0 -1 30 685.579)"/><path d="M112.16 430.813 106.552 430.813" stroke="#FFFFFF" stroke-width="1.68256" stroke-linecap="butt" stroke-linejoin="round" stroke-miterlimit="10" stroke-opacity="1" fill="none" fill-rule="nonzero" transform="matrix(1.00083 0 0 -1 30 685.579)"/><path d="M112.16 434.896 106.552 434.896" stroke="#FFFFFF" stroke-width="1.68256" stroke-linecap="butt" stroke-linejoin="round" stroke-miterlimit="10" stroke-opacity="1" fill="none" fill-rule="nonzero" transform="matrix(1.00083 0 0 -1 30 685.579)"/><path d="M112.16 438.432 106.552 438.432" stroke="#FFFFFF" stroke-width="1.68256" stroke-linecap="butt" stroke-linejoin="round" stroke-miterlimit="10" stroke-opacity="1" fill="none" fill-rule="nonzero" transform="matrix(1.00083 0 0 -1 30 685.579)"/><path d="M112.16 441.55 106.552 441.55" stroke="#FFFFFF" stroke-width="1.68256" stroke-linecap="butt" stroke-linejoin="round" stroke-miterlimit="10" stroke-opacity="1" fill="none" fill-rule="nonzero" transform="matrix(1.00083 0 0 -1 30 685.579)"/><path d="M112.16 462.7 106.552 462.7" stroke="#FFFFFF" stroke-width="1.68256" stroke-linecap="butt" stroke-linejoin="round" stroke-miterlimit="10" stroke-opacity="1" fill="none" fill-rule="nonzero" transform="matrix(1.00083 0 0 -1 30 685.579)"/><path d="M112.16 473.44 106.552 473.44" stroke="#FFFFFF" stroke-width="1.68256" stroke-linecap="butt" stroke-linejoin="round" stroke-miterlimit="10" stroke-opacity="1" fill="none" fill-rule="nonzero" transform="matrix(1.00083 0 0 -1 30 685.579)"/><path d="M112.16 481.06 106.552 481.06" stroke="#FFFFFF" stroke-width="1.68256" stroke-linecap="butt" stroke-linejoin="round" stroke-miterlimit="10" stroke-opacity="1" fill="none" fill-rule="nonzero" transform="matrix(1.00083 0 0 -1 30 685.579)"/><path d="M112.16 486.971 106.552 486.971" stroke="#FFFFFF" stroke-width="1.68256" stroke-linecap="butt" stroke-linejoin="round" stroke-miterlimit="10" stroke-opacity="1" fill="none" fill-rule="nonzero" transform="matrix(1.00083 0 0 -1 30 685.579)"/><path d="M112.16 491.8 106.552 491.8" stroke="#FFFFFF" stroke-width="1.68256" stroke-linecap="butt" stroke-linejoin="round" stroke-miterlimit="10" stroke-opacity="1" fill="none" fill-rule="nonzero" transform="matrix(1.00083 0 0 -1 30 685.579)"/><path d="M112.16 495.88 106.552 495.88" stroke="#FFFFFF" stroke-width="1.68256" stroke-linecap="butt" stroke-linejoin="round" stroke-miterlimit="10" stroke-opacity="1" fill="none" fill-rule="nonzero" transform="matrix(1.00083 0 0 -1 30 685.579)"/><path d="M112.16 499.419 106.552 499.419" stroke="#FFFFFF" stroke-width="1.68256" stroke-linecap="butt" stroke-linejoin="round" stroke-miterlimit="10" stroke-opacity="1" fill="none" fill-rule="nonzero" transform="matrix(1.00083 0 0 -1 30 685.579)"/><path d="M112.16 502.537 106.552 502.537" stroke="#FFFFFF" stroke-width="1.68256" stroke-linecap="butt" stroke-linejoin="round" stroke-miterlimit="10" stroke-opacity="1" fill="none" fill-rule="nonzero" transform="matrix(1.00083 0 0 -1 30 685.579)"/><path d="M8.64163 0.262706 12.3551-1.05179 12.3551-1.44614C11.895-1.44614 11.8293-1.44614 11.7636-1.44614 10.8434-1.44614 10.6463-1.70904 10.6463-2.85922L10.6463-17.1215 10.5477-17.1544C9.33176-16.7272 8.44447-16.4971 6.83421-16.0699L6.83421-15.6756C7.03137-15.6756 7.1957-15.6756 7.39287-15.6756 8.31303-15.6756 8.54307-15.4455 8.54307-14.3939L8.54307-10.4833C7.59004-11.272 6.89994-11.5678 5.91407-11.5678 3.02218-11.5678 0.688937-8.70874 0.688937-5.15959 0.688937-1.93908 2.5621 0.262705 5.32254 0.262705 6.73564 0.262705 7.68864-0.263094 8.54307-1.44614L8.54307 0.164118ZM8.54307-2.56346C8.54307-2.39915 8.37874-2.07053 8.11584-1.80763 7.65577-1.31469 7.03137-1.05179 6.30841-1.05179 4.23808-1.05179 2.82498-3.05639 2.82498-6.14548 2.82498-9.00451 4.07378-10.8448 5.97978-10.8448 7.32714-10.8448 8.54307-9.69461 8.54307-8.34724ZM24.5964-1.24897 24.4978-1.24897C23.3147-1.24897 23.0518-1.54473 23.0518-2.69491L23.0518-11.3049 19.0755-11.3049 19.0755-10.8777C20.6529-10.8119 20.9486-10.549 20.9486-9.30027L20.9486-3.38502C20.9486-2.69491 20.8172-2.33342 20.4557-2.07053 19.7984-1.51187 19.0097-1.2161 18.2539-1.2161 17.268-1.2161 16.4793-2.07053 16.4793-3.12212L16.4793-11.3049 12.7987-11.3049 12.7987-10.9762C14.0147-10.8777 14.3433-10.5162 14.3433-9.36598L14.3433-3.02352C14.3433-1.01893 15.5592 0.262706 17.3995 0.262706 18.3196 0.262706 19.3055-0.164506 19.9956-0.821755L21.0801-1.90622 21.0801 0.164118 21.1787 0.229843C22.4274-0.263093 23.3147-0.558855 24.5963-0.920341ZM33.0667-7.88718 32.968-11.3049 32.6721-11.3049 32.6393-11.272C32.4094-11.0748 32.3766-11.0748 32.2779-11.0748 32.1464-11.0748 31.8836-11.1077 31.6206-11.2391 31.0619-11.4363 30.5033-11.5349 29.846-11.5349 27.8744-11.5349 26.4284-10.2533 26.4284-8.44584 26.4284-7.03275 27.2171-6.04688 29.3861-4.83098L30.832-4.00942C31.7193-3.48362 32.1464-2.89209 32.1464-2.10339 32.1464-1.01893 31.325-0.295956 30.0432-0.295956 29.189-0.295956 28.4001-0.624582 27.9401-1.18324 27.4143-1.80763 27.1843-2.39915 26.8556-3.81222L26.4613-3.81222 26.4613 0.0983936 26.7899 0.0983936C26.9542-0.164506 27.0528-0.197368 27.3486-0.197368 27.5786-0.197368 27.9401-0.164506 28.5317-0.00019371 29.2218 0.164118 29.9119 0.262706 30.339 0.262706 32.2779 0.262706 33.8881-1.2161 33.8881-2.95782 33.8881-4.23945 33.2967-5.06102 31.7849-5.94828L29.0575-7.55855C28.3673-7.98577 27.973-8.61014 27.973-9.26741 27.973-10.2861 28.7616-10.9762 29.9119-10.9762 31.3578-10.9762 32.1135-10.1218 32.6721-7.88718ZM41.307-11.3049 38.7765-11.3049 38.7765-14.2296C38.7765-14.4925 38.7437-14.5583 38.5793-14.5583 38.415-14.3282 38.2835-14.0982 38.0863-13.8681 37.1334-12.4551 36.049-11.272 35.6545-11.1734 35.3917-10.9762 35.2274-10.8119 35.2274-10.6805 35.2274-10.6148 35.2602-10.549 35.3258-10.5162L36.6733-10.5162 36.6733-2.95782C36.6733-0.821755 37.3962 0.262706 38.908 0.262706 40.1239 0.262706 41.0768-0.361679 41.8984-1.64331L41.5698-1.93908C41.044-1.31469 40.6169-1.05179 40.0911-1.05179 39.1379-1.05179 38.7765-1.7419 38.7765-3.31929L38.7765-10.5162 41.307-10.5162ZM58.1407-3.91082C56.9576-2.16911 56.0375-1.54473 54.6245-1.54473 52.3241-1.54473 50.7136-3.58219 50.7136-6.47408 50.7136-9.03737 52.0939-10.8448 54.1315-10.8448 55.0515-10.8448 55.3802-10.549 55.6102-9.62887L55.7745-9.07021C55.9716-8.38011 56.4318-7.92004 56.9576-7.92004 57.6149-7.92004 58.1407-8.41298 58.1407-8.97164 58.1407-10.3847 56.399-11.5678 54.2958-11.5678 53.0471-11.5678 51.7652-11.0748 50.7467-10.1547 49.4977-9.03737 48.7748-7.32851 48.7748-5.35678 48.7748-2.07053 50.7795 0.262706 53.54 0.262706 54.6901 0.262706 55.6761-0.164506 56.5961-0.920341 57.2863-1.54473 57.7464-2.20197 58.5022-3.68079ZM65.5675-11.5678C62.3143-11.5678 60.0137-9.13594 60.0137-5.68538 60.0137-2.30056 62.3471 0.262706 65.5347 0.262706 68.6895 0.262706 71.1214-2.39915 71.1214-5.88258 71.1214-9.16881 68.7882-11.5678 65.5675-11.5678ZM65.2389-10.8448C67.3749-10.8448 68.8538-8.44584 68.8538-4.99528 68.8538-2.16911 67.7035-0.460269 65.8306-0.460269 64.8446-0.460269 63.9245-1.05179 63.3987-2.07053 62.6758-3.38502 62.2812-5.12672 62.2812-6.90131 62.2812-9.30027 63.4643-10.8448 65.2389-10.8448ZM72.3535-15.6756 72.4851-15.6756C72.7809-15.6756 73.0765-15.7084 73.2739-15.7084 74.0625-15.7084 74.3255-15.347 74.3255-14.1639L74.3255-2.20198C74.3255-0.821755 73.964-0.493132 72.3866-0.361682L72.3866-0.00019371 78.3345-0.00019371 78.3345-0.361679C76.7243-0.493129 76.4287-0.723168 76.4287-2.10339L76.4287-17.1215 76.33-17.1544C75.0154-16.7272 74.0625-16.4971 72.3535-16.0699ZM90.8552-1.24897 90.7565-1.24897C89.5737-1.24897 89.3106-1.54473 89.3106-2.69491L89.3106-11.3049 85.3342-11.3049 85.3342-10.8777C86.9116-10.8119 87.2074-10.549 87.2074-9.30027L87.2074-3.38502C87.2074-2.69491 87.0759-2.33342 86.7144-2.07053 86.0574-1.51187 85.2686-1.2161 84.5128-1.2161 83.5268-1.2161 82.7383-2.07053 82.7383-3.12212L82.7383-11.3049 79.0577-11.3049 79.0577-10.9762C80.2736-10.8777 80.602-10.5162 80.602-9.36598L80.602-3.02352C80.602-1.01893 81.8179 0.262706 83.6584 0.262706 84.5784 0.262706 85.5644-0.164506 86.2545-0.821755L87.339-1.90622 87.339 0.164118 87.4374 0.229843C88.6864-0.263093 89.5737-0.558855 90.8552-0.920341ZM91.8903-9.99037C92.1861-10.089 92.4161-10.1218 92.6791-10.1218 93.3364-10.1218 93.5664-9.69461 93.5664-8.51157L93.5664-2.13625C93.5664-0.788892 93.2049-0.394543 91.7918-0.361679L91.7918-0.00019371 97.3785-0.00019371 97.3785-0.361679C96.0639-0.427406 95.6696-0.690305 95.6696-1.67618L95.6696-8.77447C95.6696-8.84018 95.8667-9.07021 96.0639-9.26741 96.6884-9.82607 97.7728-10.2533 98.6272-10.2533 99.7444-10.2533 100.303-9.36598 100.303-7.62428L100.303-2.16911C100.303-0.756028 100.007-0.493129 98.5944-0.361679L98.5944-0.00019371 104.214-0.00019371 104.214-0.361679C102.801-0.394543 102.406-0.821755 102.406-2.39915L102.406-8.70874C103.162-9.7932 103.984-10.2533 105.134-10.2533 106.58-10.2533 107.04-9.56317 107.04-7.49281L107.04-2.20197C107.04-0.756028 106.843-0.558855 105.364-0.361679L105.364-0.00019371 110.885-0.00019371 110.885-0.361679 110.228-0.427406C109.472-0.493129 109.143-0.920341 109.143-1.90622L109.143-7.09848C109.143-10.0561 108.157-11.5678 106.218-11.5678 104.772-11.5678 103.491-10.9105 102.143-9.46457 101.683-10.8777 100.829-11.5678 99.4817-11.5678 98.3642-11.5678 97.6412-11.2063 95.5709-9.62887L95.5709-11.502 95.4065-11.5678C94.125-11.0748 93.2705-10.8119 91.8903-10.4176ZM111.329-9.99037C111.493-10.089 111.723-10.1218 112.019-10.1218 112.709-10.1218 112.939-9.72747 112.939-8.51157L112.939-2.2677C112.939-0.821755 112.676-0.493129 111.394-0.361679L111.394-0.00019371 116.718-0.00019371 116.718-0.361679C115.436-0.493129 115.042-0.788892 115.042-1.67618L115.042-8.74161C116.258-9.89177 116.816-10.1875 117.638-10.1875 118.887-10.1875 119.478-9.39884 119.478-7.75571L119.478-2.49774C119.478-0.920341 119.15-0.493129 117.901-0.361679L117.901-0.00019371 123.126-0.00019371 123.126-0.361679C121.91-0.493129 121.581-0.788892 121.581-2.03766L121.581-7.78858C121.581-10.1547 120.497-11.5678 118.624-11.5678 117.474-11.5678 116.685-11.1406 114.976-9.5303L114.976-11.502 114.812-11.5678C113.563-11.1077 112.709-10.8448 111.329-10.4176ZM138.44 0.262706 142.154-1.05179 142.154-1.44614C141.693-1.44614 141.628-1.44614 141.562-1.44614 140.642-1.44614 140.445-1.70904 140.445-2.85922L140.445-17.1215 140.346-17.1544C139.13-16.7272 138.243-16.4971 136.633-16.0699L136.633-15.6756C136.83-15.6756 136.994-15.6756 137.191-15.6756 138.111-15.6756 138.341-15.4455 138.341-14.3939L138.341-10.4833C137.388-11.272 136.698-11.5678 135.712-11.5678 132.82-11.5678 130.487-8.70874 130.487-5.15959 130.487-1.93908 132.361 0.262705 135.121 0.262705 136.534 0.262705 137.487-0.263094 138.341-1.44614L138.341 0.164118ZM138.341-2.56346C138.341-2.39915 138.177-2.07053 137.914-1.80763 137.454-1.31469 136.83-1.05179 136.107-1.05179 134.036-1.05179 132.623-3.05639 132.623-6.14548 132.623-9.00451 133.872-10.8448 135.778-10.8448 137.125-10.8448 138.341-9.69461 138.341-8.34724ZM152.62-4.10799C151.404-2.20197 150.353-1.479 148.742-1.479 147.296-1.479 146.212-2.20197 145.489-3.64792 145.029-4.60092 144.865-5.42248 144.799-6.96702L152.554-6.96702C152.357-8.61014 152.094-9.33311 151.47-10.1218 150.714-11.042 149.564-11.5678 148.249-11.5678 147.001-11.5678 145.818-11.1077 144.865-10.2533 143.682-9.23454 142.991-7.42711 142.991-5.38962 142.991-1.90622 144.799 0.262706 147.691 0.262706 150.09 0.262706 151.963-1.2161 153.014-3.94369ZM144.865-7.75571C145.127-9.72747 145.982-10.6476 147.527-10.6476 149.038-10.6476 149.663-9.95751 149.991-7.75571ZM153.902-9.99037C154.066-10.089 154.296-10.1218 154.592-10.1218 155.282-10.1218 155.512-9.72747 155.512-8.51157L155.512-2.2677C155.512-0.821755 155.249-0.493129 153.968-0.361679L153.968-0.00019371 159.291-0.00019371 159.291-0.361679C158.01-0.493129 157.615-0.788892 157.615-1.67618L157.615-8.74161C158.831-9.89177 159.39-10.1875 160.211-10.1875 161.46-10.1875 162.052-9.39884 162.052-7.75571L162.052-2.49774C162.052-0.920341 161.723-0.493129 160.474-0.361679L160.474-0.00019371 165.699-0.00019371 165.699-0.361679C164.484-0.493129 164.155-0.788892 164.155-2.03766L164.155-7.78858C164.155-10.1547 163.07-11.5678 161.197-11.5678 160.047-11.5678 159.258-11.1406 157.549-9.5303L157.549-11.502 157.385-11.5678C156.136-11.1077 155.282-10.8448 153.902-10.4176ZM173.997-7.88718 173.899-11.3049 173.603-11.3049 173.57-11.272C173.34-11.0748 173.307-11.0748 173.208-11.0748 173.077-11.0748 172.814-11.1077 172.551-11.2391 171.993-11.4363 171.434-11.5349 170.777-11.5349 168.805-11.5349 167.359-10.2533 167.359-8.44584 167.359-7.03275 168.148-6.04688 170.316-4.83098L171.762-4.00942C172.65-3.48362 173.077-2.89209 173.077-2.10339 173.077-1.01893 172.255-0.295956 170.974-0.295956 170.119-0.295956 169.331-0.624582 168.871-1.18324 168.345-1.80763 168.115-2.39915 167.786-3.81222L167.392-3.81222 167.392 0.0983922 167.72 0.0983922C167.885-0.164507 167.983-0.19737 168.279-0.19737 168.509-0.19737 168.871-0.164507 169.462-0.000195112 170.152 0.164117 170.842 0.262704 171.27 0.262704 173.208 0.262704 174.819-1.2161 174.819-2.95782 174.819-4.23945 174.227-5.06102 172.715-5.94828L169.988-7.55855C169.298-7.98577 168.903-8.61014 168.903-9.26741 168.903-10.2861 169.692-10.9762 170.842-10.9762 172.288-10.9762 173.044-10.1218 173.603-7.88718ZM180.233-11.5678 176.322-10.1875 176.322-9.7932 176.519-9.82607C176.848-9.89177 177.176-9.89177 177.374-9.89177 177.998-9.89177 178.228-9.49744 178.228-8.41298L178.228-2.56346C178.228-0.756028 177.965-0.493129 176.224-0.361679L176.224-0.00019371 182.205-0.00019371 182.205-0.361679C180.528-0.493129 180.331-0.756028 180.331-2.56346L180.331-11.502ZM179.05-17.1544C178.36-17.1544 177.801-16.5957 177.801-15.8728 177.801-15.1826 178.327-14.5911 179.05-14.5911 179.773-14.5911 180.364-15.1498 180.364-15.8728 180.364-16.5957 179.773-17.1544 179.05-17.1544ZM189.204-11.3049 186.674-11.3049 186.674-14.2296C186.674-14.4925 186.641-14.5583 186.477-14.5583 186.312-14.3282 186.181-14.0982 185.984-13.8681 185.031-12.4551 183.946-11.272 183.552-11.1734 183.289-10.9762 183.125-10.8119 183.125-10.6805 183.125-10.6148 183.157-10.549 183.223-10.5162L184.57-10.5162 184.57-2.95782C184.57-0.821755 185.294 0.262706 186.805 0.262706 188.021 0.262706 188.974-0.361679 189.796-1.64331L189.467-1.93908C188.941-1.31469 188.514-1.05179 187.988-1.05179 187.035-1.05179 186.674-1.7419 186.674-3.31929L186.674-10.5162 189.204-10.5162ZM201.692-11.3049 198.307-11.3049 198.307-10.9434C199.129-10.9434 199.523-10.7133 199.523-10.319 199.523-10.2204 199.49-10.0561 199.424-9.89177L196.993-2.95782 194.101-9.30027C193.936-9.66174 193.838-9.99037 193.838-10.2533 193.838-10.7133 194.199-10.8777 195.284-10.9434L195.284-11.3049 190.124-11.3049 190.124-10.9762C190.782-10.8448 191.209-10.5819 191.406-10.1547L194.265-3.97655 194.331-3.77939 194.725-3.02352C195.415-1.77477 195.81-0.854618 195.81-0.493132 195.81-0.0987823 195.251 1.47861 194.824 2.23445 194.462 2.8917 193.904 3.38463 193.575 3.38463 193.411 3.38463 193.181 3.3189 192.918 3.18746 192.457 3.02316 192.03 2.92456 191.603 2.92456 191.012 2.92456 190.519 3.4175 190.519 4.00903 190.519 4.86346 191.307 5.48782 192.392 5.48782 194.068 5.48782 195.284 4.07476 196.631 0.459879L200.509-9.7932C200.837-10.6148 201.1-10.8448 201.692-10.9434Z" fill="#FFFFFF" fill-rule="nonzero" fill-opacity="1" transform="matrix(0 -1 1.00083 0 54.9305 572.492)"/><path d="M4.20981-15.8728 8.44907-15.8728C11.3738-15.8728 12.1297-15.3141 12.5569-12.8165L13.2141-12.8165 12.9841-16.9244 0.562094-16.9244 6.05011-8.05148 0.134884-0.00019371 13.4442-0.00019371 14.8244-4.53522 14.1671-4.53522C13.3456-2.49774 12.5898-2.07053 9.69786-2.07053L2.96105-2.07053 8.28477-9.26741Z" fill="#FFFFFF" fill-rule="nonzero" fill-opacity="1" transform="matrix(0 -1 1.00083 0 54.9305 363.649)"/><path d="M6.73362 0.19709 9.59264-0.821645 9.59264-1.15027C9.23117-1.11741 9.19831-1.11741 9.13258-1.11741 8.44248-1.11741 8.27815-1.31458 8.27815-2.23473L8.27815-13.3094 8.17958-13.3422C7.25942-13.0136 6.56931-12.8164 5.32055-12.4878L5.32055-12.1921C5.48485-12.1921 5.58345-12.1921 5.74775-12.1921 6.47072-12.1921 6.63505-11.9949 6.63505-11.2062L6.63505-8.14996C5.91205-8.77436 5.38625-9.00439 4.59756-9.00439 2.33005-9.00439 0.522622-6.76974 0.522622-4.00931 0.522622-1.51176 2.00143 0.19709 4.13749 0.19709 5.22195 0.19709 5.97778-0.197259 6.63502-1.11741L6.63502 0.131365ZM6.63505-2.00469C6.63505-1.87324 6.50358-1.61034 6.30642-1.41317 5.94492-1.01882 5.48485-0.821645 4.89332-0.821645 3.28306-0.821645 2.19861-2.39904 2.19861-4.798 2.19861-6.99977 3.15162-8.44573 4.66329-8.44573 5.68202-8.44573 6.63505-7.52557 6.63505-6.50684Z" fill="#FFFFFF" fill-rule="nonzero" fill-opacity="1" transform="matrix(0 -1 1.00083 0 59.642 348.764)"/><path d="M8.31732 6.04649C8.31732 5.94789 8.31732 5.91505 7.89012 5.48782 4.76817 2.30017 3.94663-2.43201 3.94663-6.27691 3.94663-10.6476 4.89963-15.0183 7.98869-18.1731 8.31732-18.4689 8.31732-18.5346 8.31732-18.6003 8.31732-18.7646 8.21872-18.8632 8.08729-18.8632 7.82439-18.8632 5.55687-17.1544 4.07807-13.9667 2.79644-11.1734 2.50067-8.41298 2.50067-6.27691 2.50067-4.33802 2.76357-1.28183 4.1438 1.54434 5.65546 4.66626 7.82439 6.27652 8.08729 6.27652 8.21872 6.27652 8.31732 6.21082 8.31732 6.04649Z" fill="#FFFFFF" fill-rule="nonzero" fill-opacity="1" transform="matrix(0 -1 1.00083 0 54.9305 337.588)"/><path d="M11.6656-2.76064C11.2713-2.39915 11.1398-2.2677 10.9755-2.07053 10.2197-1.28183 9.89107-1.01893 9.66104-1.01893 9.46387-1.01893 9.29954-1.18324 9.29954-1.34755 9.29954-1.87335 10.3511-6.14548 11.5342-10.4833 11.5999-10.7462 11.6328-10.7791 11.6985-11.0091L11.5013-11.0748 9.98967-10.9105 9.89107-10.8448 9.62817-9.62887C9.43101-10.549 8.70804-11.0748 7.62358-11.0748 4.30448-11.0748 0.426705-6.47408 0.426705-2.49774 0.426705-0.756028 1.37972 0.262706 2.98999 0.262706 4.76455 0.262706 5.81615-0.558855 8.05078-3.68079 7.52498-1.70904 7.45928-1.38041 7.45928-0.788892 7.45928-0.0659178 7.75501 0.262706 8.47801 0.262706 9.46387 0.262706 10.1211-0.23023 11.9614-2.49774ZM7.75501-10.549C8.60944-10.4833 9.16811-9.89177 9.16811-9.00451 9.16811-6.90131 7.91934-3.91082 6.17762-2.07053 5.58611-1.38042 4.73168-0.953204 4.00872-0.953204 3.12142-0.953204 2.5299-1.67618 2.5299-2.82636 2.5299-4.20659 3.48292-6.80271 4.56735-8.34724 5.58611-9.7932 6.76915-10.6148 7.75501-10.549Z" fill="#FFFFFF" fill-rule="nonzero" fill-opacity="1" transform="matrix(0 -1 1.00083 0 54.9305 327.833)"/><path d="M7.25995-6.27691C7.25995-8.24867 6.99705-11.272 5.61682-14.131 4.10516-17.2201 1.93622-18.8632 1.67332-18.8632 1.54187-18.8632 1.44329-18.7646 1.44329-18.6003 1.44329-18.5346 1.44329-18.4689 1.90336-18.0417 4.36806-15.5441 5.81399-11.5349 5.81399-6.27691 5.81399-1.97194 4.86099 2.43162 1.77191 5.61929 1.44329 5.91505 1.44329 5.94789 1.44329 6.04649 1.44329 6.17795 1.54187 6.27652 1.67332 6.27652 1.93622 6.27652 4.20373 4.56769 5.68255 1.38003 6.96418-1.38042 7.25995-4.17372 7.25995-6.27691ZM18.9343 6.27652 18.9343 5.29066 16.5025 5.29066 16.5025-17.8445 18.9343-17.8445 18.9343-18.8632 15.4837-18.8632 15.4837 6.27652Z" fill="#FFFFFF" fill-rule="nonzero" fill-opacity="1" transform="matrix(0 -1 1.00083 0 54.9305 315.26)"/><path d="M11.8341-9.76034 11.8341-10.7462 9.89522-10.7462C9.36942-10.7462 9.00796-10.8119 8.51499-10.9762L7.95636-11.1734C7.26623-11.4363 6.57613-11.5678 5.95173-11.5678 3.58564-11.5678 1.74535-9.76034 1.74535-7.45995 1.74535-5.88255 2.40259-4.92955 4.07857-4.10799 3.58564-3.64792 3.15844-3.22072 2.99411-3.08926 2.17256-2.36628 1.84394-1.87335 1.84394-1.34755 1.84394-0.821752 2.13969-0.525989 3.15844-0.0330538 1.38386 1.28144 0.693749 2.103 0.693749 3.05603 0.693749 4.37052 2.66549 5.48782 5.06447 5.48782 6.9376 5.48782 8.90936 4.83059 10.2239 3.77899 11.1769 2.99029 11.6041 2.20159 11.6041 1.21572 11.6041-0.328816 10.421-1.38041 8.54786-1.44614L5.2945-1.61045C3.98-1.64331 3.35561-1.87335 3.35561-2.30056 3.35561-2.7935 4.17717-3.68079 4.86727-3.87795 5.0973-3.84509 5.26163-3.81222 5.32736-3.81222 5.8203-3.77936 6.1489-3.74652 6.28036-3.74652 7.23336-3.74652 8.21926-4.10799 9.00796-4.79812 9.82949-5.52108 10.2239-6.37551 10.2239-7.65714 10.2239-8.38011 10.0924-8.93878 9.73092-9.76034ZM3.68424 0.0655311C4.53867 0.229843 6.54326 0.361292 7.75916 0.361292 10.0596 0.361292 10.8811 0.689918 10.8811 1.61007 10.8811 3.056 8.97509 4.04189 6.1489 4.04189 3.91427 4.04189 2.46832 3.3189 2.46832 2.20159 2.46832 1.64293 2.63263 1.3143 3.68424 0.0655311ZM3.81567-8.51157C3.81567-9.99037 4.53867-10.8448 5.68883-10.8448 6.47753-10.8448 7.10193-10.4176 7.52913-9.69461 7.9892-8.80731 8.28496-7.65714 8.28496-6.67128 8.28496-5.25818 7.52913-4.37089 6.37896-4.37089 4.86727-4.37089 3.81567-6.01402 3.81567-8.41298ZM25.357-3.91082C24.174-2.16911 23.2538-1.54473 21.8407-1.54473 19.5403-1.54473 17.9301-3.58219 17.9301-6.47408 17.9301-9.03737 19.3103-10.8448 21.3478-10.8448 22.2679-10.8448 22.5966-10.549 22.8266-9.62887L22.9909-9.07021C23.1881-8.38011 23.6482-7.92004 24.174-7.92004 24.8312-7.92004 25.357-8.41298 25.357-8.97164 25.357-10.3847 23.6153-11.5678 21.5121-11.5678 20.2633-11.5678 18.9817-11.0748 17.9629-10.1547 16.7142-9.03737 15.9912-7.32851 15.9912-5.35678 15.9912-2.07053 17.9958 0.262706 20.7563 0.262706 21.9064 0.262706 22.8923-0.164506 23.8125-0.920341 24.5026-1.54473 24.9627-2.20197 25.7185-3.68079ZM27.0001-9.99037C27.2959-10.089 27.5259-10.1218 27.7888-10.1218 28.4461-10.1218 28.6761-9.69461 28.6761-8.51157L28.6761-2.13625C28.6761-0.788892 28.3146-0.394543 26.9015-0.361679L26.9015-0.00019371 32.4882-0.00019371 32.4882-0.361679C31.1736-0.427406 30.7793-0.690305 30.7793-1.67618L30.7793-8.77447C30.7793-8.84018 30.9764-9.07021 31.1736-9.26741 31.7981-9.82607 32.8825-10.2533 33.7369-10.2533 34.8541-10.2533 35.413-9.36598 35.413-7.62428L35.413-2.16911C35.413-0.756028 35.1172-0.493129 33.7041-0.361679L33.7041-0.00019371 39.3236-0.00019371 39.3236-0.361679C37.9105-0.394543 37.5162-0.821755 37.5162-2.39915L37.5162-8.70874C38.272-9.7932 39.0936-10.2533 40.2437-10.2533 41.6895-10.2533 42.1497-9.56317 42.1497-7.49281L42.1497-2.20197C42.1497-0.756028 41.9526-0.558855 40.4736-0.361679L40.4736-0.00019371 45.9946-0.00019371 45.9946-0.361679 45.3373-0.427406C44.5816-0.493129 44.2529-0.920341 44.2529-1.90622L44.2529-7.09848C44.2529-10.0561 43.2669-11.5678 41.3281-11.5678 39.8822-11.5678 38.6006-10.9105 37.2532-9.46457 36.793-10.8777 35.9388-11.5678 34.5914-11.5678 33.4739-11.5678 32.7509-11.2063 30.6808-9.62887L30.6808-11.502 30.5165-11.5678C29.2347-11.0748 28.3802-10.8119 27.0001-10.4176Z" fill="#FFFFFF" fill-rule="nonzero" fill-opacity="1" transform="matrix(0 -1 1.00083 0 54.9305 295.747)"/><path d="M12.8838-4.50288C13.2125-4.50288 13.574-4.50288 13.574-4.89725 13.574-5.29158 13.2125-5.29158 12.8838-5.29158L2.30214-5.29158C1.97352-5.29158 1.61203-5.29158 1.61203-4.89725 1.61203-4.50288 1.97352-4.50288 2.30214-4.50288Z" fill="#FFFFFF" fill-rule="nonzero" fill-opacity="1" transform="matrix(0 -1 1.00083 0 45.796 249.655)"/><path d="M9.29733-2.69546 9.03443-2.76119C8.31146-1.67673 8.04856-1.47955 7.16127-1.47955L2.49481-1.47955 5.78104-4.93011C7.52276-6.73754 8.2786-8.21634 8.2786-9.76087 8.2786-11.6998 6.7012-13.2114 4.66374-13.2114 3.57927-13.2114 2.5934-12.7842 1.87042-11.9955 1.21317-11.3383 0.950274-10.7139 0.588788-9.33367L1.016-9.23507C1.8047-11.1411 2.49481-11.7655 3.84217-11.7655 5.4853-11.7655 6.6026-10.6482 6.6026-9.00504 6.6026-7.49337 5.71533-5.68595 4.07221-3.94425L0.588788-0.230781 0.588788-0.000744486 8.21286-0.000744486Z" fill="#FFFFFF" fill-rule="nonzero" fill-opacity="1" transform="matrix(0 -1 1.00083 0 45.796 234.46)"/><path d="M0.857994 3.28606 0.857994 3.91043 6.14884 3.91043 6.14884-16.6286 0.857994-16.6286 0.857994-16.0042 3.02692-16.0042C3.84848-16.0042 4.24282-15.577 4.24282-14.7226L4.24282 2.20159C4.24282 2.95743 3.91419 3.28606 3.12549 3.28606Z" fill="#FFFFFF" fill-rule="nonzero" fill-opacity="1" transform="matrix(0 -1 1.00083 0 54.9305 223.285)"/><g clip-path="url(#clip7)"><path d="M112.16 214.558 115.579 213.971 118.998 215.143 122.418 219.554 125.837 222.478 129.256 225.906 136.094 231.176 142.932 235.554 149.771 238.965 156.609 241.479 163.447 243.285 173.705 245.244 194.219 248.95 211.315 252.799 231.83 258.21 262.602 267.088 307.05 280.426 310.471 281.921 317.308 283.362 341.242 289.621 348.079 291.074 351.5 289.593 354.918 289.792 368.595 298.02 378.853 303.059 399.366 312.266 430.14 325.995 436.977 329.506 443.816 331.685 457.493 334.955 478.006 339.049 505.361 343.799 570.325 354.565 573.743 355.429 577.161 356.839 580.58 359.324 584.001 363.32 590.838 374.901 594.256 378.129 597.677 377.369 601.096 373.177 604.514 364.823 607.933 350.74 611.354 328.143 614.772 294.24 618.191 245.694 621.609 175.848 625.03 76.6438 626.87-2.80426" stroke="#FFFFFF" stroke-width="5.60852" stroke-linecap="square" stroke-linejoin="round" stroke-miterlimit="10" stroke-opacity="1" fill="none" fill-rule="nonzero" transform="matrix(1.00083 0 0 -1 30 685.579)"/></g><g clip-path="url(#clip8)"><path d="M112.16 198.41 614.772 378.612 614.795-2.80426" stroke="#FFFFFF" stroke-width="2.80426" stroke-linecap="butt" stroke-linejoin="round" stroke-miterlimit="10" stroke-dasharray="10.3758 4.48682" stroke-opacity="1" fill="none" fill-rule="nonzero" transform="matrix(1.00083 0 0 -1 30 685.579)"/></g><g><path d="M112.16 381.539 363.466 381.539" stroke="#FFFFFF" stroke-width="2.80426" stroke-linecap="butt" stroke-linejoin="round" stroke-miterlimit="10" stroke-opacity="1" fill="none" fill-rule="nonzero" transform="matrix(1.00083 0 0 -1 30 685.579)"/></g><g><path d="M363.466 457.916 614.772 457.916" stroke="#FFFFFF" stroke-width="2.80426" stroke-linecap="butt" stroke-linejoin="round" stroke-miterlimit="10" stroke-opacity="1" fill="none" fill-rule="nonzero" transform="matrix(1.00083 0 0 -1 30 685.579)"/></g><path d="M112.16 78.4237 112.16 505.328" stroke="#FFFFFF" stroke-width="2.24341" stroke-linecap="square" stroke-linejoin="miter" stroke-miterlimit="10" stroke-opacity="1" fill="none" fill-rule="nonzero" transform="matrix(1.00083 0 0 -1 30 685.579)"/><path d="M648.067 78.4237 648.067 505.328" stroke="#FFFFFF" stroke-width="2.24341" stroke-linecap="square" stroke-linejoin="miter" stroke-miterlimit="10" stroke-opacity="1" fill="none" fill-rule="nonzero" transform="matrix(1.00083 0 0 -1 30 685.579)"/><path d="M112.16 78.4237 648.067 78.4237" stroke="#FCFCFC" stroke-width="2.24341" stroke-linecap="square" stroke-linejoin="miter" stroke-miterlimit="10" stroke-opacity="1" fill="none" fill-rule="nonzero" transform="matrix(1.00083 0 0 -1 30 685.579)"/><path d="M112.16 505.328 648.067 505.328" stroke="#FFFFFF" stroke-width="2.24411" stroke-linecap="square" stroke-linejoin="miter" stroke-miterlimit="10" stroke-opacity="1" fill="none" fill-rule="nonzero" transform="matrix(1.00083 0 0 -1 30 685.579)"/><path d="M4.21034-15.8689 8.4496-15.8689C11.3744-15.8689 12.1302-15.3102 12.5574-12.8126L13.2147-12.8126 12.9846-16.9205 0.56261-16.9205 6.05064-8.04761 0.135398 0.00369688 13.4447 0.00369688 14.8249-4.53132 14.1677-4.53132C13.3461-2.49385 12.5903-2.06664 9.69836-2.06664L2.96158-2.06664 8.28527-9.26351Z" fill="#FFFFFF" fill-rule="nonzero" fill-opacity="1" transform="matrix(1.00083 0 0 1 255.668 293.299)"/><path d="M19.8446-8.77879C18.7602-8.77879 17.9386-8.45016 17.2156-7.76006 16.0983-6.6756 15.3425-4.44094 15.3425-2.14058 15.3425-0.0045187 15.9997 2.29585 16.9199 3.38031 17.6429 4.23474 18.6287 4.69481 19.7789 4.69481 20.7648 4.69481 21.6192 4.36618 22.3093 3.67608 23.4595 2.62448 24.1825 0.356968 24.1825-2.00913 24.1825-6.01833 22.4079-8.77879 19.8446-8.77879ZM19.7789-8.28586C21.422-8.28586 22.3093-6.08407 22.3093-1.97626 22.3093 2.09868 21.4549 4.20187 19.7789 4.20187 18.1029 4.20187 17.2156 2.09868 17.2156-1.97626 17.2156-6.11693 18.1029-8.28586 19.7789-8.28586Z" fill="#FFFFFF" fill-rule="nonzero" fill-opacity="1" transform="matrix(1.00083 0 0 1 255.668 293.299)"/><path d="M4.20331-15.873 8.44256-15.873C11.3673-15.873 12.1232-15.3144 12.5504-12.8168L13.2076-12.8168 12.9776-16.9246 0.555586-16.9246 6.0436-8.05179 0.128375-0.000498614 13.4376-0.000498614 14.8179-4.53553 14.1606-4.53553C13.3391-2.49804 12.5832-2.07083 9.69133-2.07083L2.95454-2.07083 8.27826-9.26771Z" fill="#FFFFFF" fill-rule="nonzero" fill-opacity="1" transform="matrix(1.00083 0 0 1 507.183 216.923)"/><path d="M20.5688-8.77475 17.0525-7.00019 17.0525-6.73729C17.2826-6.83589 17.5126-6.90162 17.5783-6.93446 17.9398-7.06592 18.2684-7.16449 18.4656-7.16449 18.86-7.16449 19.0571-6.86875 19.0571-6.24436L19.0571 2.6285C19.0571 3.25289 18.8928 3.71295 18.5642 3.87728 18.3013 4.07445 18.0055 4.10732 17.184 4.14018L17.184 4.43592 22.5734 4.43592 22.5734 4.14015C21.0289 4.10732 20.7331 3.94299 20.7331 2.98999L20.7331-8.74191Z" fill="#FFFFFF" fill-rule="nonzero" fill-opacity="1" transform="matrix(1.00083 0 0 1 507.183 216.923)"/></g></g></g></g></g></svg>